<svg width="32" height="32" viewBox="0 0 32 32" fill="none" xmlns="http://www.w3.org/2000/svg">
<path d="M30 0H2C0.895431 0 0 0.895431 0 2V30C0 31.1046 0.895431 32 2 32H30C31.1046 32 32 31.1046 32 30V2C32 0.895431 31.1046 0 30 0Z" fill="url(#paint0_linear_932:393)"/>
<g filter="url(#filter0_d_932:393)">
<path d="M23 27.19V17.42C22.9239 16.9485 22.7362 16.5019 22.4527 16.1175C22.1692 15.7332 21.798 15.422 21.37 15.21L17.43 13.11C21.81 13.11 23 10.11 23 7.22C23 5.22 22.91 2 16.89 2C8.68003 2 9.00003 8.69 9.00003 8.69V28.06C9.01778 28.3589 9.14854 28.64 9.3658 28.8461C9.58306 29.0522 9.87056 29.168 10.17 29.17C11.55 29.26 13.81 29.34 15.24 29.5C16.67 29.66 18.76 29.8 20.56 29.98C22.88 30.21 23 28 23 27.19ZM18.28 6.35C19.67 7.08 18.83 10.21 15 10.21C15 10.21 15 4.61 18.28 6.35ZM18 25.55C17.2872 25.761 16.5523 25.8886 15.81 25.93C15.7066 25.9383 15.6026 25.9251 15.5046 25.8911C15.4065 25.8571 15.3166 25.8032 15.2405 25.7327C15.1643 25.6622 15.1037 25.5767 15.0623 25.4816C15.0209 25.3864 14.9997 25.2838 15 25.18V17.59C14.9999 17.4814 15.0288 17.3747 15.0837 17.281C15.1386 17.1873 15.2175 17.1099 15.3123 17.0569C15.4071 17.0039 15.5144 16.9772 15.623 16.9795C15.7315 16.9818 15.8376 17.013 15.93 17.07L18.09 18.39C18.3669 18.5579 18.596 18.7942 18.7554 19.0761C18.9147 19.358 18.999 19.6762 19 20V24.16C18.998 24.4668 18.9006 24.7653 18.7215 25.0143C18.5423 25.2633 18.2902 25.4505 18 25.55V25.55Z" fill="#F2D7BF"/>
</g>
<defs>
<filter id="filter0_d_932:393" x="8.99835" y="2" width="16.0016" height="29.9967" filterUnits="userSpaceOnUse" color-interpolation-filters="sRGB">
<feFlood flood-opacity="0" result="BackgroundImageFix"/>
<feColorMatrix in="SourceAlpha" type="matrix" values="0 0 0 0 0 0 0 0 0 0 0 0 0 0 0 0 0 0 127 0" result="hardAlpha"/>
<feOffset dx="2" dy="2"/>
<feComposite in2="hardAlpha" operator="out"/>
<feColorMatrix type="matrix" values="0 0 0 0 0 0 0 0 0 0 0 0 0 0 0 0 0 0 0.25 0"/>
<feBlend mode="normal" in2="BackgroundImageFix" result="effect1_dropShadow_932:393"/>
<feBlend mode="normal" in="SourceGraphic" in2="effect1_dropShadow_932:393" result="shape"/>
</filter>
<linearGradient id="paint0_linear_932:393" x1="16" y1="0" x2="16" y2="32" gradientUnits="userSpaceOnUse">
<stop stop-color="#E58080"/>
<stop offset="1" stop-color="#AA2222"/>
</linearGradient>
</defs>
</svg>
