<svg xmlns="http://www.w3.org/2000/svg" xmlns:xlink="http://www.w3.org/1999/xlink"><symbol fill="none" viewBox="0 0 24 24" id="icon-brand-facebook" xmlns="http://www.w3.org/2000/svg"><path d="M7 10v4h3v7h4v-7h3l1-4h-4V8a1 1 0 011-1h3V3h-3a5 5 0 00-5 5v2H7z" stroke="var(--icon-stroke)" stroke-width="var(--icon-stroke-width)" stroke-linecap="round" stroke-linejoin="round"/></symbol><symbol fill="none" viewBox="0 0 24 24" id="icon-brand-instagram" xmlns="http://www.w3.org/2000/svg"><path d="M16 4H8a4 4 0 00-4 4v8a4 4 0 004 4h8a4 4 0 004-4V8a4 4 0 00-4-4z" stroke="var(--icon-stroke)" stroke-width="var(--icon-stroke-width)" stroke-linecap="round" stroke-linejoin="round"/><path d="M12 15a3 3 0 100-6 3 3 0 000 6zM16.5 7.5v.001" stroke="var(--icon-stroke)" stroke-width="var(--icon-stroke-width)" stroke-linecap="round" stroke-linejoin="round"/></symbol><symbol fill="none" viewBox="0 0 24 24" id="icon-brand-youtube" xmlns="http://www.w3.org/2000/svg"><path d="M17 5H7a4 4 0 00-4 4v6a4 4 0 004 4h10a4 4 0 004-4V9a4 4 0 00-4-4z" stroke="var(--icon-stroke)" stroke-width="var(--icon-stroke-width)" stroke-linecap="round" stroke-linejoin="round"/><path d="M10 9l5 3-5 3V9z" stroke="var(--icon-stroke)" stroke-width="var(--icon-stroke-width)" stroke-linecap="round" stroke-linejoin="round"/></symbol><symbol fill="none" viewBox="0 0 24 24" id="icon-buy" xmlns="http://www.w3.org/2000/svg"><path d="M20 7.5L12 3 4 7.5m16 0v9L12 21m8-13.5L12 12m0 9l-8-4.5v-9M12 21v-9M4 7.5l8 4.5m4-6.75l-8 4.5" stroke="var(--icon-stroke)" stroke-width="var(--icon-stroke-width)" stroke-linecap="round" stroke-linejoin="round"/></symbol><symbol fill="none" viewBox="0 0 24 24" id="icon-download" xmlns="http://www.w3.org/2000/svg"><path d="M4 17v2a2 2 0 002 2h12a2 2 0 002-2v-2M7 11l5 5m0 0l5-5m-5 5V4" stroke="var(--icon-stroke)" stroke-width="var(--icon-stroke-width)" stroke-linecap="round" stroke-linejoin="round"/></symbol><symbol fill="none" viewBox="0 0 24 24" id="icon-game" xmlns="http://www.w3.org/2000/svg"><path d="M18 4H6a2 2 0 00-2 2v12a2 2 0 002 2h12a2 2 0 002-2V6a2 2 0 00-2-2z" stroke="var(--icon-stroke)" stroke-width="var(--icon-stroke-width)" stroke-linecap="round" stroke-linejoin="round"/><path d="M8.5 9a.5.5 0 100-1 .5.5 0 000 1zM15.5 9a.5.5 0 100-1 .5.5 0 000 1zM15.5 16a.5.5 0 100-1 .5.5 0 000 1zM8.5 16a.5.5 0 100-1 .5.5 0 000 1z" stroke="var(--icon-stroke)" stroke-width="var(--icon-stroke-width)" stroke-linecap="round" stroke-linejoin="round"/></symbol><symbol fill="none" viewBox="0 0 24 24" id="icon-kit" xmlns="http://www.w3.org/2000/svg"><path d="M4 10v8a2 2 0 002 2h12a2 2 0 002-2v-8M4 10V6a2 2 0 012-2h8M4 10h10m6 0V6a2 2 0 00-2-2h-4m6 6h-6m0 0V4" stroke="var(--icon-stroke)" stroke-width="var(--icon-stroke-width)"/></symbol><symbol fill="none" viewBox="0 0 48 48" id="icon-lg-arrow-right" xmlns="http://www.w3.org/2000/svg"><path d="M3 24c0 11.598 9.402 21 21 21s21-9.402 21-21S35.598 3 24 3 3 12.402 3 24zM33.333 24L24 14.667M33.333 24H14.667m18.666 0L24 33.333" stroke="var(--icon-stroke)" stroke-width="var(--icon-stroke-width)" stroke-linecap="round" stroke-linejoin="round"/></symbol><symbol fill="none" viewBox="0 0 48 48" id="icon-lg-map" xmlns="http://www.w3.org/2000/svg"><path d="M3 12.75L17 6l14 6.75L45 6v29.25L31 42l-14-6.75L3 42V12.75zM17 6v29.25M31 12.75V42" stroke="var(--icon-stroke)" stroke-width="var(--icon-stroke-width)" stroke-linecap="round" stroke-linejoin="round"/></symbol><symbol fill="none" viewBox="0 0 48 48" id="icon-lg-map-2" xmlns="http://www.w3.org/2000/svg"><path d="M39 6a3 3 0 013-3v0a3 3 0 013 3v18h-6V6z" stroke="var(--icon-stroke)" stroke-width="var(--icon-stroke-width)" stroke-linejoin="round"/><path d="M42 4a1 1 0 100-2v2zm-2 37.5V23h-2v18.5h2zm-9-3v3h2v-3h-2zm4.5 7.5a4.5 4.5 0 004.5-4.5h-2a2.5 2.5 0 01-2.5 2.5v2zm0-2a2.5 2.5 0 01-2.5-2.5h-2a4.5 4.5 0 004.5 4.5v-2zM13 4h29V2H13v2zm-3 36V7H8v33h2zm3-38a5 5 0 00-5 5h2a3 3 0 013-3V2z" fill="var(--icon-fill)"/><path d="M3 39v-1a1 1 0 00-1 1h1zm33 7a1 1 0 100-2v2zM3 40h30v-2H3v2zm1 1v-2H2v2h2zm3 3a3 3 0 01-3-3H2a5 5 0 005 5v-2zm29 0H7v2h29v-2z" fill="var(--icon-fill)"/><path d="M17.586 11.586L19 13m0 0l1.414 1.414M19 13l-1.414 1.414M19 13l1.414-1.414M25 13a6 6 0 11-12 0 6 6 0 0112 0z" stroke="var(--icon-stroke)" stroke-width="var(--icon-stroke-width)" stroke-linecap="round"/></symbol><symbol fill="none" viewBox="0 0 48 48" id="icon-lg-ship" xmlns="http://www.w3.org/2000/svg"><path d="M4 43a4.8 4.8 0 004 2 4.8 4.8 0 004-2 4.8 4.8 0 014-2 4.801 4.801 0 014 2 4.799 4.799 0 004 2 4.8 4.8 0 004-2 4.8 4.8 0 014-2 4.801 4.801 0 014 2 4.799 4.799 0 004 2 4.8 4.8 0 004-2M8 39L6 29h36l-4 8M30 21V3h-2M22 11h4v18h-4zM26 21h8l3 8H26v-8zM36 24h6" stroke="var(--icon-stroke)" stroke-width="var(--icon-stroke-width)" stroke-linecap="round" stroke-linejoin="round"/></symbol><symbol fill="none" viewBox="0 0 48 48" id="icon-lg-ship-2" xmlns="http://www.w3.org/2000/svg"><path d="M4 43a4.8 4.8 0 004 2 4.8 4.8 0 004-2 4.8 4.8 0 014-2 4.801 4.801 0 014 2 4.799 4.799 0 004 2 4.8 4.8 0 004-2 4.8 4.8 0 014-2 4.801 4.801 0 014 2 4.799 4.799 0 004 2 4.8 4.8 0 004-2M3 39l3-10h36l3 8M30 21V3h-2M22 11h4v18h-4zM14 11h4v18h-4zM26 21h8l3 8H26v-8zM36 24h6" stroke="var(--icon-stroke)" stroke-width="var(--icon-stroke-width)" stroke-linecap="round" stroke-linejoin="round"/></symbol><symbol fill="none" viewBox="0 0 48 48" id="icon-lg-time" xmlns="http://www.w3.org/2000/svg"><path d="M24 13.306V24l-7.292-12.153M44 24c0 11.046-8.954 20-20 20S4 35.046 4 24 12.954 4 24 4s20 8.954 20 20z" stroke="var(--icon-stroke)" stroke-width="var(--icon-stroke-width)" stroke-linecap="round" stroke-linejoin="round"/></symbol><symbol fill="none" viewBox="0 0 24 24" id="icon-more" xmlns="http://www.w3.org/2000/svg"><path d="M12 21a9 9 0 100-18 9 9 0 000 18zM8 12v.01m4-.01v.01m4-.01v.01" stroke="var(--icon-stroke)" stroke-width="var(--icon-stroke-width)" stroke-linecap="round" stroke-linejoin="round"/></symbol><symbol fill="none" viewBox="0 0 24 24" id="icon-shopping" xmlns="http://www.w3.org/2000/svg"><path d="M9 7H5v12a2 2 0 002 2h10a2 2 0 002-2V7h-4M9 7V6a3 3 0 116 0v1M9 7h6M9 7v2.5M15 7v2.5" stroke="var(--icon-stroke)" stroke-width="var(--icon-stroke-width)" stroke-linecap="round" stroke-linejoin="round"/></symbol><symbol fill="none" viewBox="0 0 24 24" id="icon-x-mark" xmlns="http://www.w3.org/2000/svg"><path d="M18 6L6 18M6 6l12 12" stroke="#9B9FAB" stroke-width="2" stroke-linecap="round" stroke-linejoin="round"/></symbol><symbol fill="none" viewBox="0 0 74 74" id="icon-xl-game" xmlns="http://www.w3.org/2000/svg"><path d="M61 5H13a8 8 0 00-8 8v48a8 8 0 008 8h48a8 8 0 008-8V13a8 8 0 00-8-8z" stroke="var(--icon-stroke)" stroke-width="var(--icon-stroke-width)" stroke-linecap="round" stroke-linejoin="round"/><path d="M23 25a2 2 0 100-4 2 2 0 000 4zM51 25a2 2 0 100-4 2 2 0 000 4zM51 53a2 2 0 100-4 2 2 0 000 4zM23 53a2 2 0 100-4 2 2 0 000 4z" fill="var(--icon-fill)"/><path d="M23 25a2 2 0 100-4 2 2 0 000 4zM51 25a2 2 0 100-4 2 2 0 000 4zM51 53a2 2 0 100-4 2 2 0 000 4zM23 53a2 2 0 100-4 2 2 0 000 4z" stroke="var(--icon-stroke)" stroke-width="var(--icon-stroke-width)" stroke-linecap="round" stroke-linejoin="round"/></symbol><symbol fill="none" viewBox="0 0 74 74" id="icon-xl-kit" xmlns="http://www.w3.org/2000/svg"><path d="M68 13v48a8 8 0 01-8 8H12a8 8 0 01-8-8V13a8 8 0 018-8h48a8 8 0 018 8z" stroke="var(--icon-stroke)" stroke-width="var(--icon-stroke-width)" stroke-linecap="round" stroke-linejoin="round"/><path d="M4 28h41m0 0h23m-23 0v1m0-1V15m0 0V5m0 10h15m0 0h9m-9 0V5" stroke="var(--icon-stroke)" stroke-width="var(--icon-stroke-width)"/></symbol></svg>