<svg width="547" height="816" viewBox="0 0 547 816" fill="none" xmlns="http://www.w3.org/2000/svg">
<g clip-path="url(#clip0_1136_772)">
<rect width="547" height="816" fill="white"/>
<path d="M489 662H485V666.712L474.5 667H457V665H449V667H420V663H417V667H394L392 671H512L511 666L491.27 666.541L489 662Z" fill="#D94141"/>
<line x1="512.5" y1="641" x2="512.5" y2="659" stroke="black" stroke-opacity="0.12"/>
<line x1="392.5" y1="641" x2="392.5" y2="659" stroke="black" stroke-opacity="0.12"/>
<path d="M402 642.5L407 645.387V639.613L402 642.5ZM504 642.5L499 639.613V645.387L504 642.5ZM406.5 643H499.5V642H406.5V643Z" fill="black" fill-opacity="0.12"/>
<path d="M412.959 634H411.828V626.395H407.621V634H406.496V625.469H412.959V634ZM414.553 630.771C414.553 630.15 414.674 629.592 414.916 629.096C415.162 628.6 415.502 628.217 415.936 627.947C416.373 627.678 416.871 627.543 417.43 627.543C418.293 627.543 418.99 627.842 419.521 628.439C420.057 629.037 420.324 629.832 420.324 630.824V630.9C420.324 631.518 420.205 632.072 419.967 632.564C419.732 633.053 419.395 633.434 418.953 633.707C418.516 633.98 418.012 634.117 417.441 634.117C416.582 634.117 415.885 633.818 415.35 633.221C414.818 632.623 414.553 631.832 414.553 630.848V630.771ZM415.643 630.9C415.643 631.604 415.805 632.168 416.129 632.594C416.457 633.02 416.895 633.232 417.441 633.232C417.992 633.232 418.43 633.018 418.754 632.588C419.078 632.154 419.24 631.549 419.24 630.771C419.24 630.076 419.074 629.514 418.742 629.084C418.414 628.65 417.977 628.434 417.43 628.434C416.895 628.434 416.463 628.646 416.135 629.072C415.807 629.498 415.643 630.107 415.643 630.9ZM421.209 633.115L421.584 632.652C422.006 632.105 422.246 631.285 422.305 630.191L422.404 627.66H426.488V633.115H427.303V635.863H426.219V634H421.795V635.863H420.711L420.717 633.115H421.209ZM422.492 633.115H425.404V628.662H423.453L423.389 630.174C423.322 631.436 423.023 632.416 422.492 633.115ZM433.701 627.66V634H432.611V628.557H430.455L430.326 630.93C430.256 632.02 430.072 632.799 429.775 633.268C429.482 633.736 429.016 633.98 428.375 634H427.941V633.045L428.252 633.021C428.604 632.982 428.855 632.779 429.008 632.412C429.16 632.045 429.258 631.365 429.301 630.373L429.418 627.66H433.701ZM435.154 630.771C435.154 630.15 435.275 629.592 435.518 629.096C435.764 628.6 436.104 628.217 436.537 627.947C436.975 627.678 437.473 627.543 438.031 627.543C438.895 627.543 439.592 627.842 440.123 628.439C440.658 629.037 440.926 629.832 440.926 630.824V630.9C440.926 631.518 440.807 632.072 440.568 632.564C440.334 633.053 439.996 633.434 439.555 633.707C439.117 633.98 438.613 634.117 438.043 634.117C437.184 634.117 436.486 633.818 435.951 633.221C435.42 632.623 435.154 631.832 435.154 630.848V630.771ZM436.244 630.9C436.244 631.604 436.406 632.168 436.73 632.594C437.059 633.02 437.496 633.232 438.043 633.232C438.594 633.232 439.031 633.018 439.355 632.588C439.68 632.154 439.842 631.549 439.842 630.771C439.842 630.076 439.676 629.514 439.344 629.084C439.016 628.65 438.578 628.434 438.031 628.434C437.496 628.434 437.064 628.646 436.736 629.072C436.408 629.498 436.244 630.107 436.244 630.9ZM441.811 633.115L442.186 632.652C442.607 632.105 442.848 631.285 442.906 630.191L443.006 627.66H447.09V633.115H447.904V635.863H446.82V634H442.396V635.863H441.312L441.318 633.115H441.811ZM443.094 633.115H446.006V628.662H444.055L443.99 630.174C443.924 631.436 443.625 632.416 443.094 633.115ZM451.08 631.299H450.289V634H449.199V627.66H450.289V630.344H450.998L453.131 627.66H454.443L451.936 630.707L454.654 634H453.277L451.08 631.299ZM459.5 634C459.438 633.875 459.387 633.652 459.348 633.332C458.844 633.855 458.242 634.117 457.543 634.117C456.918 634.117 456.404 633.941 456.002 633.59C455.604 633.234 455.404 632.785 455.404 632.242C455.404 631.582 455.654 631.07 456.154 630.707C456.658 630.34 457.365 630.156 458.275 630.156H459.33V629.658C459.33 629.279 459.217 628.979 458.99 628.756C458.764 628.529 458.43 628.416 457.988 628.416C457.602 628.416 457.277 628.514 457.016 628.709C456.754 628.904 456.623 629.141 456.623 629.418H455.533C455.533 629.102 455.645 628.797 455.867 628.504C456.094 628.207 456.398 627.973 456.781 627.801C457.168 627.629 457.592 627.543 458.053 627.543C458.783 627.543 459.355 627.727 459.77 628.094C460.184 628.457 460.398 628.959 460.414 629.6V632.518C460.414 633.1 460.488 633.562 460.637 633.906V634H459.5ZM457.701 633.174C458.041 633.174 458.363 633.086 458.668 632.91C458.973 632.734 459.193 632.506 459.33 632.225V630.924H458.48C457.152 630.924 456.488 631.312 456.488 632.09C456.488 632.43 456.602 632.695 456.828 632.887C457.055 633.078 457.346 633.174 457.701 633.174ZM472.941 630.186H465.113V629.301H472.941V630.186ZM481.906 631.135H483.09V632.02H481.906V634H480.816V632.02H476.932V631.381L480.752 625.469H481.906V631.135ZM478.162 631.135H480.816V626.951L480.688 627.186L478.162 631.135ZM486.723 633.232C487.109 633.232 487.447 633.115 487.736 632.881C488.025 632.646 488.186 632.354 488.217 632.002H489.242C489.223 632.365 489.098 632.711 488.867 633.039C488.637 633.367 488.328 633.629 487.941 633.824C487.559 634.02 487.152 634.117 486.723 634.117C485.859 634.117 485.172 633.83 484.66 633.256C484.152 632.678 483.898 631.889 483.898 630.889V630.707C483.898 630.09 484.012 629.541 484.238 629.061C484.465 628.58 484.789 628.207 485.211 627.941C485.637 627.676 486.139 627.543 486.717 627.543C487.428 627.543 488.018 627.756 488.486 628.182C488.959 628.607 489.211 629.16 489.242 629.84H488.217C488.186 629.43 488.029 629.094 487.748 628.832C487.471 628.566 487.127 628.434 486.717 628.434C486.166 628.434 485.738 628.633 485.434 629.031C485.133 629.426 484.982 629.998 484.982 630.748V630.953C484.982 631.684 485.133 632.246 485.434 632.641C485.734 633.035 486.164 633.232 486.723 633.232ZM494.111 632.564L496.268 627.66H497.621V634H496.537V629.389L494.486 634H493.736L491.645 629.289V634H490.561V627.66H491.967L494.111 632.564Z" fill="black" fill-opacity="0.7"/>
<path d="M455.077 695.017C482.974 694.638 504.65 700.848 512 704C504.65 707.152 482.974 713.362 455.077 712.983C420.205 712.511 397.641 708.728 392 704C397.641 699.272 420.205 695.489 455.077 695.017Z" fill="#D94141"/>
<path d="M492 522H493L493.933 536H494V541H496V539H498V536H495V535H506V536H500V539H502V541H526L527 547H377L378 543H385V542H386V541H381V540H389V541H387V542H388V543H402V541H399V540H415V541H408V543H417V540H421V543H431V541H423V540H439V541H436V543H440.9L440 534H443L443.9 543H447V540C447 538.343 448.343 537 450 537H451V540H450C449.448 540 449 540.448 449 541V543H454.9L454 534H457L457.8 542H458V538H462V534H465V542H470V540C470 538.343 471.343 537 473 537H474V540H473C472.448 540 472 540.448 472 541V542H477.8L477 534H480L480.8 542H489V541H492V537H488V536H492.933L492 522Z" fill="#D94141"/>
<line x1="527.5" y1="491" x2="527.5" y2="531" stroke="black" stroke-opacity="0.12"/>
<line x1="377.5" y1="491" x2="377.5" y2="531" stroke="black" stroke-opacity="0.12"/>
<path d="M387 492.5L392 495.387V489.613L387 492.5ZM519 492.5L514 489.613V495.387L519 492.5ZM391.5 493H514.5V492H391.5V493Z" fill="black" fill-opacity="0.12"/>
<path d="M403.467 475.469L406.256 482.43L409.045 475.469H410.504V484H409.379V480.678L409.484 477.092L406.684 484H405.822L403.027 477.109L403.139 480.678V484H402.014V475.469H403.467ZM416.422 477.66H417.506V484H416.422V479.377L413.498 484H412.414V477.66H413.498V482.289L416.422 477.66ZM424.426 484H423.342V481.293H420.43V484H419.34V477.66H420.43V480.408H423.342V477.66H424.426V484ZM425.885 480.771C425.885 480.15 426.006 479.592 426.248 479.096C426.494 478.6 426.834 478.217 427.268 477.947C427.705 477.678 428.203 477.543 428.762 477.543C429.625 477.543 430.322 477.842 430.854 478.439C431.389 479.037 431.656 479.832 431.656 480.824V480.9C431.656 481.518 431.537 482.072 431.299 482.564C431.064 483.053 430.727 483.434 430.285 483.707C429.848 483.98 429.344 484.117 428.773 484.117C427.914 484.117 427.217 483.818 426.682 483.221C426.15 482.623 425.885 481.832 425.885 480.848V480.771ZM426.975 480.9C426.975 481.604 427.137 482.168 427.461 482.594C427.789 483.02 428.227 483.232 428.773 483.232C429.324 483.232 429.762 483.018 430.086 482.588C430.41 482.154 430.572 481.549 430.572 480.771C430.572 480.076 430.406 479.514 430.074 479.084C429.746 478.65 429.309 478.434 428.762 478.434C428.227 478.434 427.795 478.646 427.467 479.072C427.139 479.498 426.975 480.107 426.975 480.9ZM438.195 484H437.111V481.293H434.199V484H433.109V477.66H434.199V480.408H437.111V477.66H438.195V484ZM439.654 480.771C439.654 480.15 439.775 479.592 440.018 479.096C440.264 478.6 440.604 478.217 441.037 477.947C441.475 477.678 441.973 477.543 442.531 477.543C443.395 477.543 444.092 477.842 444.623 478.439C445.158 479.037 445.426 479.832 445.426 480.824V480.9C445.426 481.518 445.307 482.072 445.068 482.564C444.834 483.053 444.496 483.434 444.055 483.707C443.617 483.98 443.113 484.117 442.543 484.117C441.684 484.117 440.986 483.818 440.451 483.221C439.92 482.623 439.654 481.832 439.654 480.848V480.771ZM440.744 480.9C440.744 481.604 440.906 482.168 441.23 482.594C441.559 483.02 441.996 483.232 442.543 483.232C443.094 483.232 443.531 483.018 443.855 482.588C444.18 482.154 444.342 481.549 444.342 480.771C444.342 480.076 444.176 479.514 443.844 479.084C443.516 478.65 443.078 478.434 442.531 478.434C441.996 478.434 441.564 478.646 441.236 479.072C440.908 479.498 440.744 480.107 440.744 480.9ZM449.328 483.232C449.715 483.232 450.053 483.115 450.342 482.881C450.631 482.646 450.791 482.354 450.822 482.002H451.848C451.828 482.365 451.703 482.711 451.473 483.039C451.242 483.367 450.934 483.629 450.547 483.824C450.164 484.02 449.758 484.117 449.328 484.117C448.465 484.117 447.777 483.83 447.266 483.256C446.758 482.678 446.504 481.889 446.504 480.889V480.707C446.504 480.09 446.617 479.541 446.844 479.061C447.07 478.58 447.395 478.207 447.816 477.941C448.242 477.676 448.744 477.543 449.322 477.543C450.033 477.543 450.623 477.756 451.092 478.182C451.564 478.607 451.816 479.16 451.848 479.84H450.822C450.791 479.43 450.635 479.094 450.354 478.832C450.076 478.566 449.732 478.434 449.322 478.434C448.771 478.434 448.344 478.633 448.039 479.031C447.738 479.426 447.588 479.998 447.588 480.748V480.953C447.588 481.684 447.738 482.246 448.039 482.641C448.34 483.035 448.77 483.232 449.328 483.232ZM455.697 484.117C454.838 484.117 454.139 483.836 453.6 483.273C453.061 482.707 452.791 481.951 452.791 481.006V480.807C452.791 480.178 452.91 479.617 453.148 479.125C453.391 478.629 453.727 478.242 454.156 477.965C454.59 477.684 455.059 477.543 455.562 477.543C456.387 477.543 457.027 477.814 457.484 478.357C457.941 478.9 458.17 479.678 458.17 480.689V481.141H453.875C453.891 481.766 454.072 482.271 454.42 482.658C454.771 483.041 455.217 483.232 455.756 483.232C456.139 483.232 456.463 483.154 456.729 482.998C456.994 482.842 457.227 482.635 457.426 482.377L458.088 482.893C457.557 483.709 456.76 484.117 455.697 484.117ZM455.562 478.434C455.125 478.434 454.758 478.594 454.461 478.914C454.164 479.23 453.98 479.676 453.91 480.25H457.086V480.168C457.055 479.617 456.906 479.191 456.641 478.891C456.375 478.586 456.016 478.434 455.562 478.434ZM459.523 477.66H460.613V483.115H463.531V477.66H464.615V483.115H465.371L465.266 485.881H464.293V484H459.523V477.66ZM477.371 480.186H469.543V479.301H477.371V480.186ZM482.258 479.723L482.691 475.469H487.062V476.471H483.611L483.354 478.797C483.771 478.551 484.246 478.428 484.777 478.428C485.555 478.428 486.172 478.686 486.629 479.201C487.086 479.713 487.314 480.406 487.314 481.281C487.314 482.16 487.076 482.854 486.6 483.361C486.127 483.865 485.465 484.117 484.613 484.117C483.859 484.117 483.244 483.908 482.768 483.49C482.291 483.072 482.02 482.494 481.953 481.756H482.979C483.045 482.244 483.219 482.613 483.5 482.863C483.781 483.109 484.152 483.232 484.613 483.232C485.117 483.232 485.512 483.061 485.797 482.717C486.086 482.373 486.23 481.898 486.23 481.293C486.23 480.723 486.074 480.266 485.762 479.922C485.453 479.574 485.041 479.4 484.525 479.4C484.053 479.4 483.682 479.504 483.412 479.711L483.125 479.945L482.258 479.723ZM491.152 483.232C491.539 483.232 491.877 483.115 492.166 482.881C492.455 482.646 492.615 482.354 492.646 482.002H493.672C493.652 482.365 493.527 482.711 493.297 483.039C493.066 483.367 492.758 483.629 492.371 483.824C491.988 484.02 491.582 484.117 491.152 484.117C490.289 484.117 489.602 483.83 489.09 483.256C488.582 482.678 488.328 481.889 488.328 480.889V480.707C488.328 480.09 488.441 479.541 488.668 479.061C488.895 478.58 489.219 478.207 489.641 477.941C490.066 477.676 490.568 477.543 491.146 477.543C491.857 477.543 492.447 477.756 492.916 478.182C493.389 478.607 493.641 479.16 493.672 479.84H492.646C492.615 479.43 492.459 479.094 492.178 478.832C491.9 478.566 491.557 478.434 491.146 478.434C490.596 478.434 490.168 478.633 489.863 479.031C489.562 479.426 489.412 479.998 489.412 480.748V480.953C489.412 481.684 489.562 482.246 489.863 482.641C490.164 483.035 490.594 483.232 491.152 483.232ZM498.541 482.564L500.697 477.66H502.051V484H500.967V479.389L498.916 484H498.166L496.074 479.289V484H494.99V477.66H496.396L498.541 482.564Z" fill="black" fill-opacity="0.7"/>
<path d="M451.497 571C483.711 571 515.087 577 527 580C515.087 583 483.711 589 451.497 589C411.228 589 377 586.632 377 580C377 573.368 411.228 571 451.497 571Z" fill="#D94141"/>
<path d="M419 316H418L420.93 358H418L419.333 362H404.667L406 358H388.919L386 322H385L386.946 358H381L382.333 362H366V373H538C535.5 372 534 370 534 368V364H514V362H520V360H514L512 358H495V354H487V359L485 362H483.913L480 317H479L481.935 362H475V358H472V357C472 356.448 472.448 356 473 356H474V352H473C471.343 352 470 353.343 470 355V358H468V356H458V344H452V356H450V358H449V362H446V360C446 359.448 446.448 359 447 359H448V355H447C445.343 355 444 356.343 444 358V362H441.667L443 358H422.907L419 316Z" fill="#D94141"/>
<line x1="538.5" y1="274" x2="538.5" y2="350" stroke="black" stroke-opacity="0.12"/>
<line x1="366.5" y1="274" x2="366.5" y2="350" stroke="black" stroke-opacity="0.12"/>
<path d="M376 275.5L381 278.387V272.613L376 275.5ZM530 275.5L525 272.613V278.387L530 275.5ZM380.5 276H525.5V275H380.5V276Z" fill="black" fill-opacity="0.12"/>
<path d="M381.33 263.168H380.293V267H379.168V258.469H380.293V262.23H381.172L384.154 258.469H385.555L382.297 262.605L385.795 267H384.418L381.33 263.168ZM390.57 267C390.508 266.875 390.457 266.652 390.418 266.332C389.914 266.855 389.312 267.117 388.613 267.117C387.988 267.117 387.475 266.941 387.072 266.59C386.674 266.234 386.475 265.785 386.475 265.242C386.475 264.582 386.725 264.07 387.225 263.707C387.729 263.34 388.436 263.156 389.346 263.156H390.4V262.658C390.4 262.279 390.287 261.979 390.061 261.756C389.834 261.529 389.5 261.416 389.059 261.416C388.672 261.416 388.348 261.514 388.086 261.709C387.824 261.904 387.693 262.141 387.693 262.418H386.604C386.604 262.102 386.715 261.797 386.938 261.504C387.164 261.207 387.469 260.973 387.852 260.801C388.238 260.629 388.662 260.543 389.123 260.543C389.854 260.543 390.426 260.727 390.84 261.094C391.254 261.457 391.469 261.959 391.484 262.6V265.518C391.484 266.1 391.559 266.562 391.707 266.906V267H390.57ZM388.771 266.174C389.111 266.174 389.434 266.086 389.738 265.91C390.043 265.734 390.264 265.506 390.4 265.225V263.924H389.551C388.223 263.924 387.559 264.312 387.559 265.09C387.559 265.43 387.672 265.695 387.898 265.887C388.125 266.078 388.416 266.174 388.771 266.174ZM398.363 267H397.279V264.293H394.367V267H393.277V260.66H394.367V263.408H397.279V260.66H398.363V267ZM399.822 263.771C399.822 263.15 399.943 262.592 400.186 262.096C400.432 261.6 400.771 261.217 401.205 260.947C401.643 260.678 402.141 260.543 402.699 260.543C403.562 260.543 404.26 260.842 404.791 261.439C405.326 262.037 405.594 262.832 405.594 263.824V263.9C405.594 264.518 405.475 265.072 405.236 265.564C405.002 266.053 404.664 266.434 404.223 266.707C403.785 266.98 403.281 267.117 402.711 267.117C401.852 267.117 401.154 266.818 400.619 266.221C400.088 265.623 399.822 264.832 399.822 263.848V263.771ZM400.912 263.9C400.912 264.604 401.074 265.168 401.398 265.594C401.727 266.02 402.164 266.232 402.711 266.232C403.262 266.232 403.699 266.018 404.023 265.588C404.348 265.154 404.51 264.549 404.51 263.771C404.51 263.076 404.344 262.514 404.012 262.084C403.684 261.65 403.246 261.434 402.699 261.434C402.164 261.434 401.732 261.646 401.404 262.072C401.076 262.498 400.912 263.107 400.912 263.9ZM412.133 267H411.049V264.293H408.137V267H407.047V260.66H408.137V263.408H411.049V260.66H412.133V267ZM416.51 267.117C415.65 267.117 414.951 266.836 414.412 266.273C413.873 265.707 413.604 264.951 413.604 264.006V263.807C413.604 263.178 413.723 262.617 413.961 262.125C414.203 261.629 414.539 261.242 414.969 260.965C415.402 260.684 415.871 260.543 416.375 260.543C417.199 260.543 417.84 260.814 418.297 261.357C418.754 261.9 418.982 262.678 418.982 263.689V264.141H414.688C414.703 264.766 414.885 265.271 415.232 265.658C415.584 266.041 416.029 266.232 416.568 266.232C416.951 266.232 417.275 266.154 417.541 265.998C417.807 265.842 418.039 265.635 418.238 265.377L418.9 265.893C418.369 266.709 417.572 267.117 416.51 267.117ZM416.375 261.434C415.938 261.434 415.57 261.594 415.273 261.914C414.977 262.23 414.793 262.676 414.723 263.25H417.898V263.168C417.867 262.617 417.719 262.191 417.453 261.891C417.188 261.586 416.828 261.434 416.375 261.434ZM425.598 263.9C425.598 264.865 425.377 265.643 424.936 266.232C424.494 266.822 423.896 267.117 423.143 267.117C422.373 267.117 421.768 266.873 421.326 266.385V269.438H420.242V260.66H421.232L421.285 261.363C421.727 260.816 422.34 260.543 423.125 260.543C423.887 260.543 424.488 260.83 424.93 261.404C425.375 261.979 425.598 262.777 425.598 263.801V263.9ZM424.514 263.777C424.514 263.062 424.361 262.498 424.057 262.084C423.752 261.67 423.334 261.463 422.803 261.463C422.146 261.463 421.654 261.754 421.326 262.336V265.365C421.65 265.943 422.146 266.232 422.814 266.232C423.334 266.232 423.746 266.027 424.051 265.617C424.359 265.203 424.514 264.59 424.514 263.777ZM429.523 266.232C429.91 266.232 430.248 266.115 430.537 265.881C430.826 265.646 430.986 265.354 431.018 265.002H432.043C432.023 265.365 431.898 265.711 431.668 266.039C431.438 266.367 431.129 266.629 430.742 266.824C430.359 267.02 429.953 267.117 429.523 267.117C428.66 267.117 427.973 266.83 427.461 266.256C426.953 265.678 426.699 264.889 426.699 263.889V263.707C426.699 263.09 426.812 262.541 427.039 262.061C427.266 261.58 427.59 261.207 428.012 260.941C428.438 260.676 428.939 260.543 429.518 260.543C430.229 260.543 430.818 260.756 431.287 261.182C431.76 261.607 432.012 262.16 432.043 262.84H431.018C430.986 262.43 430.83 262.094 430.549 261.832C430.271 261.566 429.928 261.434 429.518 261.434C428.967 261.434 428.539 261.633 428.234 262.031C427.934 262.426 427.783 262.998 427.783 263.748V263.953C427.783 264.684 427.934 265.246 428.234 265.641C428.535 266.035 428.965 266.232 429.523 266.232ZM435.236 264.299H434.445V267H433.355V260.66H434.445V263.344H435.154L437.287 260.66H438.6L436.092 263.707L438.811 267H437.434L435.236 264.299ZM443.656 267C443.594 266.875 443.543 266.652 443.504 266.332C443 266.855 442.398 267.117 441.699 267.117C441.074 267.117 440.561 266.941 440.158 266.59C439.76 266.234 439.561 265.785 439.561 265.242C439.561 264.582 439.811 264.07 440.311 263.707C440.814 263.34 441.521 263.156 442.432 263.156H443.486V262.658C443.486 262.279 443.373 261.979 443.146 261.756C442.92 261.529 442.586 261.416 442.145 261.416C441.758 261.416 441.434 261.514 441.172 261.709C440.91 261.904 440.779 262.141 440.779 262.418H439.689C439.689 262.102 439.801 261.797 440.023 261.504C440.25 261.207 440.555 260.973 440.938 260.801C441.324 260.629 441.748 260.543 442.209 260.543C442.939 260.543 443.512 260.727 443.926 261.094C444.34 261.457 444.555 261.959 444.57 262.6V265.518C444.57 266.1 444.645 266.562 444.793 266.906V267H443.656ZM441.857 266.174C442.197 266.174 442.52 266.086 442.824 265.91C443.129 265.734 443.35 265.506 443.486 265.225V263.924H442.637C441.309 263.924 440.645 264.312 440.645 265.09C440.645 265.43 440.758 265.695 440.984 265.887C441.211 266.078 441.502 266.174 441.857 266.174ZM451.115 260.66V267H450.025V264.533H448.391L446.896 267H445.725L447.318 264.369C446.912 264.221 446.6 263.992 446.381 263.684C446.166 263.371 446.059 263.008 446.059 262.594C446.059 262.016 446.275 261.551 446.709 261.199C447.143 260.844 447.723 260.664 448.449 260.66H451.115ZM447.148 262.605C447.148 262.914 447.254 263.164 447.465 263.355C447.676 263.543 447.955 263.639 448.303 263.643H450.025V261.539H448.467C448.064 261.539 447.744 261.639 447.506 261.838C447.268 262.033 447.148 262.289 447.148 262.605ZM461.029 260.66V267H459.939V261.557H457.783L457.654 263.93C457.584 265.02 457.4 265.799 457.104 266.268C456.811 266.736 456.344 266.98 455.703 267H455.27V266.045L455.58 266.021C455.932 265.982 456.184 265.779 456.336 265.412C456.488 265.045 456.586 264.365 456.629 263.373L456.746 260.66H461.029ZM462.482 263.771C462.482 263.15 462.604 262.592 462.846 262.096C463.092 261.6 463.432 261.217 463.865 260.947C464.303 260.678 464.801 260.543 465.359 260.543C466.223 260.543 466.92 260.842 467.451 261.439C467.986 262.037 468.254 262.832 468.254 263.824V263.9C468.254 264.518 468.135 265.072 467.896 265.564C467.662 266.053 467.324 266.434 466.883 266.707C466.445 266.98 465.941 267.117 465.371 267.117C464.512 267.117 463.814 266.818 463.279 266.221C462.748 265.623 462.482 264.832 462.482 263.848V263.771ZM463.572 263.9C463.572 264.604 463.734 265.168 464.059 265.594C464.387 266.02 464.824 266.232 465.371 266.232C465.922 266.232 466.359 266.018 466.684 265.588C467.008 265.154 467.17 264.549 467.17 263.771C467.17 263.076 467.004 262.514 466.672 262.084C466.344 261.65 465.906 261.434 465.359 261.434C464.824 261.434 464.393 261.646 464.064 262.072C463.736 262.498 463.572 263.107 463.572 263.9ZM469.139 266.115L469.514 265.652C469.936 265.105 470.176 264.285 470.234 263.191L470.334 260.66H474.418V266.115H475.232V268.863H474.148V267H469.725V268.863H468.641L468.646 266.115H469.139ZM470.422 266.115H473.334V261.662H471.383L471.318 263.174C471.252 264.436 470.953 265.416 470.422 266.115ZM478.408 264.299H477.617V267H476.527V260.66H477.617V263.344H478.326L480.459 260.66H481.771L479.264 263.707L481.982 267H480.605L478.408 264.299ZM486.828 267C486.766 266.875 486.715 266.652 486.676 266.332C486.172 266.855 485.57 267.117 484.871 267.117C484.246 267.117 483.732 266.941 483.33 266.59C482.932 266.234 482.732 265.785 482.732 265.242C482.732 264.582 482.982 264.07 483.482 263.707C483.986 263.34 484.693 263.156 485.604 263.156H486.658V262.658C486.658 262.279 486.545 261.979 486.318 261.756C486.092 261.529 485.758 261.416 485.316 261.416C484.93 261.416 484.605 261.514 484.344 261.709C484.082 261.904 483.951 262.141 483.951 262.418H482.861C482.861 262.102 482.973 261.797 483.195 261.504C483.422 261.207 483.727 260.973 484.109 260.801C484.496 260.629 484.92 260.543 485.381 260.543C486.111 260.543 486.684 260.727 487.098 261.094C487.512 261.457 487.727 261.959 487.742 262.6V265.518C487.742 266.1 487.816 266.562 487.965 266.906V267H486.828ZM485.029 266.174C485.369 266.174 485.691 266.086 485.996 265.91C486.301 265.734 486.521 265.506 486.658 265.225V263.924H485.809C484.48 263.924 483.816 264.312 483.816 265.09C483.816 265.43 483.93 265.695 484.156 265.887C484.383 266.078 484.674 266.174 485.029 266.174ZM500.27 263.186H492.441V262.301H500.27V263.186ZM508.912 258.463V259.383H508.713C507.869 259.398 507.197 259.648 506.697 260.133C506.197 260.617 505.908 261.299 505.83 262.178C506.279 261.662 506.893 261.404 507.67 261.404C508.412 261.404 509.004 261.666 509.445 262.189C509.891 262.713 510.113 263.389 510.113 264.217C510.113 265.096 509.873 265.799 509.393 266.326C508.916 266.854 508.275 267.117 507.471 267.117C506.654 267.117 505.992 266.805 505.484 266.18C504.977 265.551 504.723 264.742 504.723 263.754V263.338C504.723 261.768 505.057 260.568 505.725 259.74C506.396 258.908 507.395 258.482 508.719 258.463H508.912ZM507.488 262.307C507.117 262.307 506.775 262.418 506.463 262.641C506.15 262.863 505.934 263.143 505.812 263.479V263.877C505.812 264.58 505.971 265.146 506.287 265.576C506.604 266.006 506.998 266.221 507.471 266.221C507.959 266.221 508.342 266.041 508.619 265.682C508.9 265.322 509.041 264.852 509.041 264.27C509.041 263.684 508.898 263.211 508.613 262.852C508.332 262.488 507.957 262.307 507.488 262.307ZM514.051 266.232C514.438 266.232 514.775 266.115 515.064 265.881C515.354 265.646 515.514 265.354 515.545 265.002H516.57C516.551 265.365 516.426 265.711 516.195 266.039C515.965 266.367 515.656 266.629 515.27 266.824C514.887 267.02 514.48 267.117 514.051 267.117C513.188 267.117 512.5 266.83 511.988 266.256C511.48 265.678 511.227 264.889 511.227 263.889V263.707C511.227 263.09 511.34 262.541 511.566 262.061C511.793 261.58 512.117 261.207 512.539 260.941C512.965 260.676 513.467 260.543 514.045 260.543C514.756 260.543 515.346 260.756 515.814 261.182C516.287 261.607 516.539 262.16 516.57 262.84H515.545C515.514 262.43 515.357 262.094 515.076 261.832C514.799 261.566 514.455 261.434 514.045 261.434C513.494 261.434 513.066 261.633 512.762 262.031C512.461 262.426 512.311 262.998 512.311 263.748V263.953C512.311 264.684 512.461 265.246 512.762 265.641C513.062 266.035 513.492 266.232 514.051 266.232ZM521.439 265.564L523.596 260.66H524.949V267H523.865V262.389L521.814 267H521.064L518.973 262.289V267H517.889V260.66H519.295L521.439 265.564Z" fill="black" fill-opacity="0.7"/>
<path d="M474 397H468V399.013C443.774 398.908 412.563 399.461 397.815 400.38C387.044 401.051 366 404.71 366 418C366 431.29 387.044 434.949 397.815 435.62C412.563 436.539 443.774 437.092 468 436.987V439H474V436.946C480.026 436.889 485.429 436.784 489.78 436.627C512.051 435.821 531.04 423.873 538 418C531.04 412.127 512.051 400.179 489.78 399.373C485.429 399.216 480.026 399.111 474 399.054V397Z" fill="#D94141"/>
<path d="M494 134H493V161H491.231L490 153H485L486.846 165H481V164H485V163H474V164H479V165H467.846L466 153H461L462.846 165H454V163C454 162.448 454.448 162 455 162H456V158H455C453.343 158 452 159.343 452 161V165H436.846L435 153H430L431.846 165H424V159H422V155H420V159H417V165H409.846L408 153H403L404.385 162H398V163H404.538L404.846 165H396V163H397V162H395V160H394V162H387V163H394V165H382V164H386V163H375V164H380V165H370V163H371V162H369V161H368V162H361V163H368.75L368.25 165H358V170H546C545.582 166.466 545.888 164.498 547 161H519V160H518V158H525V157H518V155H517V157H515V158H516V160H515V161H505V154H503V151H499V154H497V148H496V154H494V134Z" fill="#D94141"/>
<line x1="358.5" y1="71" x2="358.5" y2="147" stroke="black" stroke-opacity="0.12"/>
<path d="M368 72.5L373 75.3868V69.6132L368 72.5ZM539 72.5L534 69.6132V75.3868L539 72.5ZM372.5 73H534.5V72H372.5V73Z" fill="black" fill-opacity="0.12"/>
<path d="M384.588 55.4688L387.377 62.4297L390.166 55.4688H391.625V64H390.5V60.6777L390.605 57.0918L387.805 64H386.943L384.148 57.1094L384.26 60.6777V64H383.135V55.4688H384.588ZM397.543 57.6602H398.627V64H397.543V59.377L394.619 64H393.535V57.6602H394.619V62.2891L397.543 57.6602ZM405.547 64H404.463V61.293H401.551V64H400.461V57.6602H401.551V60.4082H404.463V57.6602H405.547V64ZM412.473 64H411.389V61.293H408.477V64H407.387V57.6602H408.477V60.4082H411.389V57.6602H412.473V64ZM415.402 59.8457H417.049C417.768 59.8535 418.336 60.041 418.754 60.4082C419.172 60.7754 419.381 61.2734 419.381 61.9023C419.381 62.5352 419.166 63.043 418.736 63.4258C418.307 63.8086 417.729 64 417.002 64H414.318V57.6602H415.402V59.8457ZM421.643 64H420.553V57.6602H421.643V64ZM415.402 60.7305V63.1152H417.014C417.42 63.1152 417.734 63.0117 417.957 62.8047C418.18 62.5938 418.291 62.3066 418.291 61.9434C418.291 61.5918 418.182 61.3047 417.963 61.082C417.748 60.8555 417.445 60.7383 417.055 60.7305H415.402ZM427.637 57.6602H428.721V64H427.637V59.377L424.713 64H423.629V57.6602H424.713V62.2891L427.637 57.6602ZM427.93 55.3516C427.93 55.8242 427.768 56.2051 427.443 56.4941C427.123 56.7793 426.701 56.9219 426.178 56.9219C425.654 56.9219 425.23 56.7773 424.906 56.4883C424.582 56.1992 424.42 55.8203 424.42 55.3516H425.305C425.305 55.625 425.379 55.8398 425.527 55.9961C425.676 56.1484 425.893 56.2246 426.178 56.2246C426.451 56.2246 426.664 56.1484 426.816 55.9961C426.973 55.8438 427.051 55.6289 427.051 55.3516H427.93ZM435.412 61.2988H434.621V64H433.531V57.6602H434.621V60.3438H435.33L437.463 57.6602H438.775L436.268 60.707L438.986 64H437.609L435.412 61.2988ZM445.273 60.9004C445.273 61.8652 445.053 62.6426 444.611 63.2324C444.17 63.8223 443.572 64.1172 442.818 64.1172C442.049 64.1172 441.443 63.873 441.002 63.3848V66.4375H439.918V57.6602H440.908L440.961 58.3633C441.402 57.8164 442.016 57.543 442.801 57.543C443.562 57.543 444.164 57.8301 444.605 58.4043C445.051 58.9785 445.273 59.7773 445.273 60.8008V60.9004ZM444.189 60.7773C444.189 60.0625 444.037 59.498 443.732 59.084C443.428 58.6699 443.01 58.4629 442.479 58.4629C441.822 58.4629 441.33 58.7539 441.002 59.3359V62.3652C441.326 62.9434 441.822 63.2324 442.49 63.2324C443.01 63.2324 443.422 63.0273 443.727 62.6172C444.035 62.2031 444.189 61.5898 444.189 60.7773ZM449.287 64.1172C448.428 64.1172 447.729 63.8359 447.189 63.2734C446.65 62.707 446.381 61.9512 446.381 61.0059V60.8066C446.381 60.1777 446.5 59.6172 446.738 59.125C446.98 58.6289 447.316 58.2422 447.746 57.9648C448.18 57.6836 448.648 57.543 449.152 57.543C449.977 57.543 450.617 57.8145 451.074 58.3574C451.531 58.9004 451.76 59.6777 451.76 60.6895V61.1406H447.465C447.48 61.7656 447.662 62.2715 448.01 62.6582C448.361 63.041 448.807 63.2324 449.346 63.2324C449.729 63.2324 450.053 63.1543 450.318 62.998C450.584 62.8418 450.816 62.6348 451.016 62.377L451.678 62.8926C451.146 63.709 450.35 64.1172 449.287 64.1172ZM449.152 58.4336C448.715 58.4336 448.348 58.5938 448.051 58.9141C447.754 59.2305 447.57 59.6758 447.5 60.25H450.676V60.168C450.645 59.6172 450.496 59.1914 450.23 58.8906C449.965 58.5859 449.605 58.4336 449.152 58.4336ZM457.121 57.6602H458.205V64H457.121V59.377L454.197 64H453.113V57.6602H454.197V62.2891L457.121 57.6602ZM457.414 55.3516C457.414 55.8242 457.252 56.2051 456.928 56.4941C456.607 56.7793 456.186 56.9219 455.662 56.9219C455.139 56.9219 454.715 56.7773 454.391 56.4883C454.066 56.1992 453.904 55.8203 453.904 55.3516H454.789C454.789 55.625 454.863 55.8398 455.012 55.9961C455.16 56.1484 455.377 56.2246 455.662 56.2246C455.936 56.2246 456.148 56.1484 456.301 55.9961C456.457 55.8438 456.535 55.6289 456.535 55.3516H457.414ZM462.488 63.2324C462.875 63.2324 463.213 63.1152 463.502 62.8809C463.791 62.6465 463.951 62.3535 463.982 62.002H465.008C464.988 62.3652 464.863 62.7109 464.633 63.0391C464.402 63.3672 464.094 63.6289 463.707 63.8242C463.324 64.0195 462.918 64.1172 462.488 64.1172C461.625 64.1172 460.938 63.8301 460.426 63.2559C459.918 62.6777 459.664 61.8887 459.664 60.8887V60.707C459.664 60.0898 459.777 59.541 460.004 59.0605C460.23 58.5801 460.555 58.207 460.977 57.9414C461.402 57.6758 461.904 57.543 462.482 57.543C463.193 57.543 463.783 57.7559 464.252 58.1816C464.725 58.6074 464.977 59.1602 465.008 59.8398H463.982C463.951 59.4297 463.795 59.0938 463.514 58.832C463.236 58.5664 462.893 58.4336 462.482 58.4336C461.932 58.4336 461.504 58.6328 461.199 59.0312C460.898 59.4258 460.748 59.998 460.748 60.748V60.9531C460.748 61.6836 460.898 62.2461 461.199 62.6406C461.5 63.0352 461.93 63.2324 462.488 63.2324ZM468.857 64.1172C467.998 64.1172 467.299 63.8359 466.76 63.2734C466.221 62.707 465.951 61.9512 465.951 61.0059V60.8066C465.951 60.1777 466.07 59.6172 466.309 59.125C466.551 58.6289 466.887 58.2422 467.316 57.9648C467.75 57.6836 468.219 57.543 468.723 57.543C469.547 57.543 470.188 57.8145 470.645 58.3574C471.102 58.9004 471.33 59.6777 471.33 60.6895V61.1406H467.035C467.051 61.7656 467.232 62.2715 467.58 62.6582C467.932 63.041 468.377 63.2324 468.916 63.2324C469.299 63.2324 469.623 63.1543 469.889 62.998C470.154 62.8418 470.387 62.6348 470.586 62.377L471.248 62.8926C470.717 63.709 469.92 64.1172 468.857 64.1172ZM468.723 58.4336C468.285 58.4336 467.918 58.5938 467.621 58.9141C467.324 59.2305 467.141 59.6758 467.07 60.25H470.246V60.168C470.215 59.6172 470.066 59.1914 469.801 58.8906C469.535 58.5859 469.176 58.4336 468.723 58.4336ZM477.945 60.9004C477.945 61.8652 477.725 62.6426 477.283 63.2324C476.842 63.8223 476.244 64.1172 475.49 64.1172C474.721 64.1172 474.115 63.873 473.674 63.3848V66.4375H472.59V57.6602H473.58L473.633 58.3633C474.074 57.8164 474.688 57.543 475.473 57.543C476.234 57.543 476.836 57.8301 477.277 58.4043C477.723 58.9785 477.945 59.7773 477.945 60.8008V60.9004ZM476.861 60.7773C476.861 60.0625 476.709 59.498 476.404 59.084C476.1 58.6699 475.682 58.4629 475.15 58.4629C474.494 58.4629 474.002 58.7539 473.674 59.3359V62.3652C473.998 62.9434 474.494 63.2324 475.162 63.2324C475.682 63.2324 476.094 63.0273 476.398 62.6172C476.707 62.2031 476.861 61.5898 476.861 60.7773ZM490.156 60.1855H482.328V59.3008H490.156V60.1855ZM498.799 55.4629V56.3828H498.6C497.756 56.3984 497.084 56.6484 496.584 57.1328C496.084 57.6172 495.795 58.2988 495.717 59.1777C496.166 58.6621 496.779 58.4043 497.557 58.4043C498.299 58.4043 498.891 58.666 499.332 59.1895C499.777 59.7129 500 60.3887 500 61.2168C500 62.0957 499.76 62.7988 499.279 63.3262C498.803 63.8535 498.162 64.1172 497.357 64.1172C496.541 64.1172 495.879 63.8047 495.371 63.1797C494.863 62.5508 494.609 61.7422 494.609 60.7539V60.3379C494.609 58.7676 494.943 57.5684 495.611 56.7402C496.283 55.9082 497.281 55.4824 498.605 55.4629H498.799ZM497.375 59.3066C497.004 59.3066 496.662 59.418 496.35 59.6406C496.037 59.8633 495.82 60.1426 495.699 60.4785V60.877C495.699 61.5801 495.857 62.1465 496.174 62.5762C496.49 63.0059 496.885 63.2207 497.357 63.2207C497.846 63.2207 498.229 63.041 498.506 62.6816C498.787 62.3223 498.928 61.8516 498.928 61.2695C498.928 60.6836 498.785 60.2109 498.5 59.8516C498.219 59.4883 497.844 59.3066 497.375 59.3066ZM501.359 65.6992L500.744 65.2773C501.111 64.7656 501.303 64.2383 501.318 63.6953V62.7168H502.379V63.5664C502.379 63.9609 502.281 64.3555 502.086 64.75C501.895 65.1445 501.652 65.4609 501.359 65.6992ZM504.137 59.7227L504.57 55.4688H508.941V56.4707H505.49L505.232 58.7969C505.65 58.5508 506.125 58.4277 506.656 58.4277C507.434 58.4277 508.051 58.6855 508.508 59.2012C508.965 59.7129 509.193 60.4062 509.193 61.2812C509.193 62.1602 508.955 62.8535 508.479 63.3613C508.006 63.8652 507.344 64.1172 506.492 64.1172C505.738 64.1172 505.123 63.9082 504.646 63.4902C504.17 63.0723 503.898 62.4941 503.832 61.7559H504.857C504.924 62.2441 505.098 62.6133 505.379 62.8633C505.66 63.1094 506.031 63.2324 506.492 63.2324C506.996 63.2324 507.391 63.0605 507.676 62.7168C507.965 62.373 508.109 61.8984 508.109 61.293C508.109 60.7227 507.953 60.2656 507.641 59.9219C507.332 59.5742 506.92 59.4004 506.404 59.4004C505.932 59.4004 505.561 59.5039 505.291 59.7109L505.004 59.9453L504.137 59.7227ZM513.031 63.2324C513.418 63.2324 513.756 63.1152 514.045 62.8809C514.334 62.6465 514.494 62.3535 514.525 62.002H515.551C515.531 62.3652 515.406 62.7109 515.176 63.0391C514.945 63.3672 514.637 63.6289 514.25 63.8242C513.867 64.0195 513.461 64.1172 513.031 64.1172C512.168 64.1172 511.48 63.8301 510.969 63.2559C510.461 62.6777 510.207 61.8887 510.207 60.8887V60.707C510.207 60.0898 510.32 59.541 510.547 59.0605C510.773 58.5801 511.098 58.207 511.52 57.9414C511.945 57.6758 512.447 57.543 513.025 57.543C513.736 57.543 514.326 57.7559 514.795 58.1816C515.268 58.6074 515.52 59.1602 515.551 59.8398H514.525C514.494 59.4297 514.338 59.0938 514.057 58.832C513.779 58.5664 513.436 58.4336 513.025 58.4336C512.475 58.4336 512.047 58.6328 511.742 59.0312C511.441 59.4258 511.291 59.998 511.291 60.748V60.9531C511.291 61.6836 511.441 62.2461 511.742 62.6406C512.043 63.0352 512.473 63.2324 513.031 63.2324ZM520.42 62.5645L522.576 57.6602H523.93V64H522.846V59.3887L520.795 64H520.045L517.953 59.2891V64H516.869V57.6602H518.275L520.42 62.5645Z" fill="black" fill-opacity="0.7"/>
<path d="M465.865 196.013C451.896 196.031 437.237 196.066 424.218 196.102C422.993 194.769 421.548 194 420 194C418.443 194 416.989 194.779 415.76 196.126C409.387 196.144 403.606 196.162 398.754 196.177L398.749 196.177C390.927 196.201 385.516 196.218 383.92 196.218C375.284 196.218 357.503 200.636 358.011 208C357.503 215.364 375.284 219.782 383.92 219.782C385.516 219.782 390.927 219.799 398.749 219.823C403.603 219.838 409.385 219.856 415.76 219.874C416.989 221.221 418.443 222 420 222C421.548 222 422.993 221.231 424.218 219.898C437.237 219.934 451.896 219.969 465.865 219.987C467.071 221.265 468.487 222 470 222C471.51 222 472.922 221.268 474.127 219.996C498.321 220.015 518.857 219.973 522.614 219.782C530.336 219.389 542.089 211.927 547 208C542.089 204.073 530.336 196.611 522.614 196.218C518.857 196.027 498.321 195.985 474.127 196.004C472.922 194.732 471.51 194 470 194C468.487 194 467.071 194.735 465.865 196.013Z" fill="#D94141"/>
<path d="M173 580H172L172.754 626H169V629L172 631H172.836L172.967 639H169V646H162V626H161V612H154V626H153V646H150V642C150 641.448 150.448 641 151 641H152V637H151C149.343 637 148 638.343 148 640V646H145V626H144V612H137V626H136V646H132V642C132 641.448 132.448 641 133 641H134V637H133C131.343 637 130 638.343 130 640V646H129V626H128V612H121V626H120V646H113V642C113 641.448 113.448 641 114 641H115V637H114C112.343 637 111 638.343 111 640V646H95V644H94V630L98 628V625H94V581H93V615H91L90.6667 625H85V628L90 630H90.5L90.0333 644H87V639H85V635H83V639H82V643H84V646H77V649H79C81.7614 649 84 651.239 84 654V655H82V659H80V651C72.8978 649.082 68.9315 649.091 62 651V652H49V654H62V659H17.7386C17.2996 659 16.9119 659.286 16.7828 659.706L13 672H257C255.5 672 254 667 254 662V655H226V654L215 655H206V652H219V650H206V649C199.069 647.091 195.102 647.082 188 649V655H184V653H187V652H184V651L187 647V641H184V635H177V631L181 629V626H177V613H174.082L173 580Z" fill="#D94141"/>
<line x1="257.5" y1="564" x2="257.5" y2="640" stroke="black" stroke-opacity="0.12"/>
<line x1="13.5" y1="564" x2="13.5" y2="640" stroke="black" stroke-opacity="0.12"/>
<path d="M23 565.5L28 568.387V562.613L23 565.5ZM249 565.5L244 562.613V568.387L249 565.5ZM27.5 566H244.5V565H27.5V566Z" fill="black" fill-opacity="0.12"/>
<path d="M45.0078 554.293C45.1172 554.996 45.3379 555.49 45.6699 555.775C46.0059 556.057 46.4863 556.197 47.1113 556.197C47.7871 556.197 48.3203 555.934 48.7109 555.406C49.1055 554.879 49.3066 554.146 49.3145 553.209H45.957V552.283H49.3145C49.3145 551.357 49.1113 550.625 48.7051 550.086C48.3027 549.547 47.7383 549.277 47.0117 549.277C46.4258 549.277 45.9688 549.43 45.6406 549.734C45.3164 550.039 45.1055 550.531 45.0078 551.211H43.877C43.9668 550.316 44.2852 549.617 44.832 549.113C45.3789 548.605 46.1055 548.352 47.0117 548.352C47.6992 548.352 48.3027 548.516 48.8223 548.844C49.3457 549.168 49.7461 549.633 50.0234 550.238C50.3047 550.84 50.4453 551.533 50.4453 552.318V553.168C50.4453 553.953 50.3066 554.646 50.0293 555.248C49.752 555.85 49.3594 556.312 48.8516 556.637C48.3477 556.957 47.7676 557.117 47.1113 557.117C46.1816 557.117 45.4355 556.873 44.873 556.385C44.3145 555.893 43.9824 555.195 43.877 554.293H45.0078ZM54.4648 556.232C54.8516 556.232 55.1895 556.115 55.4785 555.881C55.7676 555.646 55.9277 555.354 55.959 555.002H56.9844C56.9648 555.365 56.8398 555.711 56.6094 556.039C56.3789 556.367 56.0703 556.629 55.6836 556.824C55.3008 557.02 54.8945 557.117 54.4648 557.117C53.6016 557.117 52.9141 556.83 52.4023 556.256C51.8945 555.678 51.6406 554.889 51.6406 553.889V553.707C51.6406 553.09 51.7539 552.541 51.9805 552.061C52.207 551.58 52.5312 551.207 52.9531 550.941C53.3789 550.676 53.8809 550.543 54.459 550.543C55.1699 550.543 55.7598 550.756 56.2285 551.182C56.7012 551.607 56.9531 552.16 56.9844 552.84H55.959C55.9277 552.43 55.7715 552.094 55.4902 551.832C55.2129 551.566 54.8691 551.434 54.459 551.434C53.9082 551.434 53.4805 551.633 53.1758 552.031C52.875 552.426 52.7246 552.998 52.7246 553.748V553.953C52.7246 554.684 52.875 555.246 53.1758 555.641C53.4766 556.035 53.9062 556.232 54.4648 556.232ZM60.1777 554.299H59.3867V557H58.2969V550.66H59.3867V553.344H60.0957L62.2285 550.66H63.541L61.0332 553.707L63.752 557H62.375L60.1777 554.299ZM68.5977 557C68.5352 556.875 68.4844 556.652 68.4453 556.332C67.9414 556.855 67.3398 557.117 66.6406 557.117C66.0156 557.117 65.502 556.941 65.0996 556.59C64.7012 556.234 64.502 555.785 64.502 555.242C64.502 554.582 64.752 554.07 65.252 553.707C65.7559 553.34 66.4629 553.156 67.373 553.156H68.4277V552.658C68.4277 552.279 68.3145 551.979 68.0879 551.756C67.8613 551.529 67.5273 551.416 67.0859 551.416C66.6992 551.416 66.375 551.514 66.1133 551.709C65.8516 551.904 65.7207 552.141 65.7207 552.418H64.6309C64.6309 552.102 64.7422 551.797 64.9648 551.504C65.1914 551.207 65.4961 550.973 65.8789 550.801C66.2656 550.629 66.6895 550.543 67.1504 550.543C67.8809 550.543 68.4531 550.727 68.8672 551.094C69.2812 551.457 69.4961 551.959 69.5117 552.6V555.518C69.5117 556.1 69.5859 556.562 69.7344 556.906V557H68.5977ZM66.7988 556.174C67.1387 556.174 67.4609 556.086 67.7656 555.91C68.0703 555.734 68.291 555.506 68.4277 555.225V553.924H67.5781C66.25 553.924 65.5859 554.312 65.5859 555.09C65.5859 555.43 65.6992 555.695 65.9258 555.887C66.1523 556.078 66.4434 556.174 66.7988 556.174ZM71.1582 556.115L71.5332 555.652C71.9551 555.105 72.1953 554.285 72.2539 553.191L72.3535 550.66H76.4375V556.115H77.252V558.863H76.168V557H71.7441V558.863H70.6602L70.666 556.115H71.1582ZM72.4414 556.115H75.3535V551.662H73.4023L73.3379 553.174C73.2715 554.436 72.9727 555.416 72.4414 556.115ZM83.8086 553.9C83.8086 554.865 83.5879 555.643 83.1465 556.232C82.7051 556.822 82.1074 557.117 81.3535 557.117C80.584 557.117 79.9785 556.873 79.5371 556.385V559.438H78.4531V550.66H79.4434L79.4961 551.363C79.9375 550.816 80.5508 550.543 81.3359 550.543C82.0977 550.543 82.6992 550.83 83.1406 551.404C83.5859 551.979 83.8086 552.777 83.8086 553.801V553.9ZM82.7246 553.777C82.7246 553.062 82.5723 552.498 82.2676 552.084C81.9629 551.67 81.5449 551.463 81.0137 551.463C80.3574 551.463 79.8652 551.754 79.5371 552.336V555.365C79.8613 555.943 80.3574 556.232 81.0254 556.232C81.5449 556.232 81.957 556.027 82.2617 555.617C82.5703 555.203 82.7246 554.59 82.7246 553.777ZM87.8223 557.117C86.9629 557.117 86.2637 556.836 85.7246 556.273C85.1855 555.707 84.916 554.951 84.916 554.006V553.807C84.916 553.178 85.0352 552.617 85.2734 552.125C85.5156 551.629 85.8516 551.242 86.2812 550.965C86.7148 550.684 87.1836 550.543 87.6875 550.543C88.5117 550.543 89.1523 550.814 89.6094 551.357C90.0664 551.9 90.2949 552.678 90.2949 553.689V554.141H86C86.0156 554.766 86.1973 555.271 86.5449 555.658C86.8965 556.041 87.3418 556.232 87.8809 556.232C88.2637 556.232 88.5879 556.154 88.8535 555.998C89.1191 555.842 89.3516 555.635 89.5508 555.377L90.2129 555.893C89.6816 556.709 88.8848 557.117 87.8223 557.117ZM87.6875 551.434C87.25 551.434 86.8828 551.594 86.5859 551.914C86.2891 552.23 86.1055 552.676 86.0352 553.25H89.2109V553.168C89.1797 552.617 89.0312 552.191 88.7656 551.891C88.5 551.586 88.1406 551.434 87.6875 551.434ZM96.7344 557H95.6504V554.293H92.7383V557H91.6484V550.66H92.7383V553.408H95.6504V550.66H96.7344V557ZM103.66 557H102.576V554.293H99.6641V557H98.5742V550.66H99.6641V553.408H102.576V550.66H103.66V557ZM106.59 552.846H108.236C108.955 552.854 109.523 553.041 109.941 553.408C110.359 553.775 110.568 554.273 110.568 554.902C110.568 555.535 110.354 556.043 109.924 556.426C109.494 556.809 108.916 557 108.189 557H105.506V550.66H106.59V552.846ZM112.83 557H111.74V550.66H112.83V557ZM106.59 553.73V556.115H108.201C108.607 556.115 108.922 556.012 109.145 555.805C109.367 555.594 109.479 555.307 109.479 554.943C109.479 554.592 109.369 554.305 109.15 554.082C108.936 553.855 108.633 553.738 108.242 553.73H106.59ZM118.824 550.66H119.908V557H118.824V552.377L115.9 557H114.816V550.66H115.9V555.289L118.824 550.66ZM119.117 548.352C119.117 548.824 118.955 549.205 118.631 549.494C118.311 549.779 117.889 549.922 117.365 549.922C116.842 549.922 116.418 549.777 116.094 549.488C115.77 549.199 115.607 548.82 115.607 548.352H116.492C116.492 548.625 116.566 548.84 116.715 548.996C116.863 549.148 117.08 549.225 117.365 549.225C117.639 549.225 117.852 549.148 118.004 548.996C118.16 548.844 118.238 548.629 118.238 548.352H119.117ZM127.408 551.023C128.205 551.023 128.842 551.291 129.318 551.826C129.799 552.357 130.039 553.059 130.039 553.93V554.029C130.039 554.627 129.924 555.162 129.693 555.635C129.463 556.104 129.131 556.469 128.697 556.73C128.268 556.988 127.771 557.117 127.209 557.117C126.357 557.117 125.672 556.834 125.152 556.268C124.633 555.697 124.373 554.934 124.373 553.977V553.449C124.373 552.117 124.619 551.059 125.111 550.273C125.607 549.488 126.338 549.01 127.303 548.838C127.85 548.74 128.219 548.621 128.41 548.48C128.602 548.34 128.697 548.146 128.697 547.9H129.588C129.588 548.389 129.477 548.77 129.254 549.043C129.035 549.316 128.684 549.51 128.199 549.623L127.391 549.805C126.746 549.957 126.262 550.215 125.938 550.578C125.617 550.938 125.408 551.418 125.311 552.02C125.885 551.355 126.584 551.023 127.408 551.023ZM127.197 551.914C126.666 551.914 126.244 552.094 125.932 552.453C125.619 552.809 125.463 553.303 125.463 553.936V554.029C125.463 554.709 125.619 555.248 125.932 555.646C126.248 556.041 126.674 556.238 127.209 556.238C127.748 556.238 128.174 556.039 128.486 555.641C128.799 555.242 128.955 554.66 128.955 553.895C128.955 553.297 128.797 552.818 128.48 552.459C128.168 552.096 127.74 551.914 127.197 551.914ZM136.508 553.9C136.508 554.865 136.287 555.643 135.846 556.232C135.404 556.822 134.807 557.117 134.053 557.117C133.283 557.117 132.678 556.873 132.236 556.385V559.438H131.152V550.66H132.143L132.195 551.363C132.637 550.816 133.25 550.543 134.035 550.543C134.797 550.543 135.398 550.83 135.84 551.404C136.285 551.979 136.508 552.777 136.508 553.801V553.9ZM135.424 553.777C135.424 553.062 135.271 552.498 134.967 552.084C134.662 551.67 134.244 551.463 133.713 551.463C133.057 551.463 132.564 551.754 132.236 552.336V555.365C132.561 555.943 133.057 556.232 133.725 556.232C134.244 556.232 134.656 556.027 134.961 555.617C135.27 555.203 135.424 554.59 135.424 553.777ZM137.604 553.771C137.604 553.15 137.725 552.592 137.967 552.096C138.213 551.6 138.553 551.217 138.986 550.947C139.424 550.678 139.922 550.543 140.48 550.543C141.344 550.543 142.041 550.842 142.572 551.439C143.107 552.037 143.375 552.832 143.375 553.824V553.9C143.375 554.518 143.256 555.072 143.018 555.564C142.783 556.053 142.445 556.434 142.004 556.707C141.566 556.98 141.062 557.117 140.492 557.117C139.633 557.117 138.936 556.818 138.4 556.221C137.869 555.623 137.604 554.832 137.604 553.848V553.771ZM138.693 553.9C138.693 554.604 138.855 555.168 139.18 555.594C139.508 556.02 139.945 556.232 140.492 556.232C141.043 556.232 141.48 556.018 141.805 555.588C142.129 555.154 142.291 554.549 142.291 553.771C142.291 553.076 142.125 552.514 141.793 552.084C141.465 551.65 141.027 551.434 140.48 551.434C139.945 551.434 139.514 551.646 139.186 552.072C138.857 552.498 138.693 553.107 138.693 553.9ZM149.914 557H148.83V554.293H145.918V557H144.828V550.66H145.918V553.408H148.83V550.66H149.914V557ZM154.291 557.117C153.432 557.117 152.732 556.836 152.193 556.273C151.654 555.707 151.385 554.951 151.385 554.006V553.807C151.385 553.178 151.504 552.617 151.742 552.125C151.984 551.629 152.32 551.242 152.75 550.965C153.184 550.684 153.652 550.543 154.156 550.543C154.98 550.543 155.621 550.814 156.078 551.357C156.535 551.9 156.764 552.678 156.764 553.689V554.141H152.469C152.484 554.766 152.666 555.271 153.014 555.658C153.365 556.041 153.811 556.232 154.35 556.232C154.732 556.232 155.057 556.154 155.322 555.998C155.588 555.842 155.82 555.635 156.02 555.377L156.682 555.893C156.15 556.709 155.354 557.117 154.291 557.117ZM154.156 551.434C153.719 551.434 153.352 551.594 153.055 551.914C152.758 552.23 152.574 552.676 152.504 553.25H155.68V553.168C155.648 552.617 155.5 552.191 155.234 551.891C154.969 551.586 154.609 551.434 154.156 551.434ZM163.203 557H162.119V554.293H159.207V557H158.117V550.66H159.207V553.408H162.119V550.66H163.203V557ZM164.662 553.771C164.662 553.15 164.783 552.592 165.025 552.096C165.271 551.6 165.611 551.217 166.045 550.947C166.482 550.678 166.98 550.543 167.539 550.543C168.402 550.543 169.1 550.842 169.631 551.439C170.166 552.037 170.434 552.832 170.434 553.824V553.9C170.434 554.518 170.314 555.072 170.076 555.564C169.842 556.053 169.504 556.434 169.062 556.707C168.625 556.98 168.121 557.117 167.551 557.117C166.691 557.117 165.994 556.818 165.459 556.221C164.928 555.623 164.662 554.832 164.662 553.848V553.771ZM165.752 553.9C165.752 554.604 165.914 555.168 166.238 555.594C166.566 556.02 167.004 556.232 167.551 556.232C168.102 556.232 168.539 556.018 168.863 555.588C169.188 555.154 169.35 554.549 169.35 553.771C169.35 553.076 169.184 552.514 168.852 552.084C168.523 551.65 168.086 551.434 167.539 551.434C167.004 551.434 166.572 551.646 166.244 552.072C165.916 552.498 165.752 553.107 165.752 553.9ZM174.336 556.232C174.723 556.232 175.061 556.115 175.35 555.881C175.639 555.646 175.799 555.354 175.83 555.002H176.855C176.836 555.365 176.711 555.711 176.48 556.039C176.25 556.367 175.941 556.629 175.555 556.824C175.172 557.02 174.766 557.117 174.336 557.117C173.473 557.117 172.785 556.83 172.273 556.256C171.766 555.678 171.512 554.889 171.512 553.889V553.707C171.512 553.09 171.625 552.541 171.852 552.061C172.078 551.58 172.402 551.207 172.824 550.941C173.25 550.676 173.752 550.543 174.33 550.543C175.041 550.543 175.631 550.756 176.1 551.182C176.572 551.607 176.824 552.16 176.855 552.84H175.83C175.799 552.43 175.643 552.094 175.361 551.832C175.084 551.566 174.74 551.434 174.33 551.434C173.779 551.434 173.352 551.633 173.047 552.031C172.746 552.426 172.596 552.998 172.596 553.748V553.953C172.596 554.684 172.746 555.246 173.047 555.641C173.348 556.035 173.777 556.232 174.336 556.232ZM180.705 557.117C179.846 557.117 179.146 556.836 178.607 556.273C178.068 555.707 177.799 554.951 177.799 554.006V553.807C177.799 553.178 177.918 552.617 178.156 552.125C178.398 551.629 178.734 551.242 179.164 550.965C179.598 550.684 180.066 550.543 180.57 550.543C181.395 550.543 182.035 550.814 182.492 551.357C182.949 551.9 183.178 552.678 183.178 553.689V554.141H178.883C178.898 554.766 179.08 555.271 179.428 555.658C179.779 556.041 180.225 556.232 180.764 556.232C181.146 556.232 181.471 556.154 181.736 555.998C182.002 555.842 182.234 555.635 182.434 555.377L183.096 555.893C182.564 556.709 181.768 557.117 180.705 557.117ZM180.57 551.434C180.133 551.434 179.766 551.594 179.469 551.914C179.172 552.23 178.988 552.676 178.918 553.25H182.094V553.168C182.062 552.617 181.914 552.191 181.648 551.891C181.383 551.586 181.023 551.434 180.57 551.434ZM184.531 550.66H185.621V556.115H188.539V550.66H189.623V556.115H190.379L190.273 558.881H189.301V557H184.531V550.66ZM202.379 553.186H194.551V552.301H202.379V553.186ZM211.941 550.695C211.941 551.121 211.828 551.5 211.602 551.832C211.379 552.164 211.076 552.424 210.693 552.611C211.139 552.803 211.49 553.082 211.748 553.449C212.01 553.816 212.141 554.232 212.141 554.697C212.141 555.436 211.891 556.023 211.391 556.461C210.895 556.898 210.24 557.117 209.428 557.117C208.607 557.117 207.949 556.898 207.453 556.461C206.961 556.02 206.715 555.432 206.715 554.697C206.715 554.236 206.84 553.82 207.09 553.449C207.344 553.078 207.693 552.797 208.139 552.605C207.76 552.418 207.461 552.158 207.242 551.826C207.023 551.494 206.914 551.117 206.914 550.695C206.914 549.977 207.145 549.406 207.605 548.984C208.066 548.562 208.674 548.352 209.428 548.352C210.178 548.352 210.783 548.562 211.244 548.984C211.709 549.406 211.941 549.977 211.941 550.695ZM211.057 554.674C211.057 554.197 210.904 553.809 210.6 553.508C210.299 553.207 209.904 553.057 209.416 553.057C208.928 553.057 208.535 553.205 208.238 553.502C207.945 553.799 207.799 554.189 207.799 554.674C207.799 555.158 207.941 555.539 208.227 555.816C208.516 556.094 208.916 556.232 209.428 556.232C209.936 556.232 210.334 556.094 210.623 555.816C210.912 555.535 211.057 555.154 211.057 554.674ZM209.428 549.242C209.002 549.242 208.656 549.375 208.391 549.641C208.129 549.902 207.998 550.26 207.998 550.713C207.998 551.146 208.127 551.498 208.385 551.768C208.646 552.033 208.994 552.166 209.428 552.166C209.861 552.166 210.207 552.033 210.465 551.768C210.727 551.498 210.857 551.146 210.857 550.713C210.857 550.279 210.723 549.926 210.453 549.652C210.184 549.379 209.842 549.242 209.428 549.242ZM216.16 556.232C216.547 556.232 216.885 556.115 217.174 555.881C217.463 555.646 217.623 555.354 217.654 555.002H218.68C218.66 555.365 218.535 555.711 218.305 556.039C218.074 556.367 217.766 556.629 217.379 556.824C216.996 557.02 216.59 557.117 216.16 557.117C215.297 557.117 214.609 556.83 214.098 556.256C213.59 555.678 213.336 554.889 213.336 553.889V553.707C213.336 553.09 213.449 552.541 213.676 552.061C213.902 551.58 214.227 551.207 214.648 550.941C215.074 550.676 215.576 550.543 216.154 550.543C216.865 550.543 217.455 550.756 217.924 551.182C218.396 551.607 218.648 552.16 218.68 552.84H217.654C217.623 552.43 217.467 552.094 217.186 551.832C216.908 551.566 216.564 551.434 216.154 551.434C215.604 551.434 215.176 551.633 214.871 552.031C214.57 552.426 214.42 552.998 214.42 553.748V553.953C214.42 554.684 214.57 555.246 214.871 555.641C215.172 556.035 215.602 556.232 216.16 556.232ZM223.549 555.564L225.705 550.66H227.059V557H225.975V552.389L223.924 557H223.174L221.082 552.289V557H219.998V550.66H221.404L223.549 555.564Z" fill="black" fill-opacity="0.7"/>
<path d="M242.932 722C240.042 719.726 236.39 717.441 232 715.221V710L224 710.821L221 706L213.543 707.795C192.422 700.979 162.75 696 125.5 696C85.4716 696 59.4826 701.872 42.6993 709H32V714.368C16.0561 723.829 13 733.502 13 734C13 734.498 16.0561 744.171 32 753.632V759H42.6993C59.4826 766.128 85.4716 772 125.5 772C162.75 772 192.422 767.021 213.543 760.205L221 762L224 757.179L232 758V752.779C236.39 750.559 240.042 748.274 242.932 746H248V747.981C253.014 747.598 257 741.485 257 734C257 726.515 253.014 720.402 248 720.019V722H242.932Z" fill="#D94141"/>
<path d="M193 326H194L194.885 380H198L196 383H194.934L194.984 386H203V389H209V392H205V394H213V397H205V399H232V397H227V396H229V395H236V396H245V397H234V399H262V406C262 410.188 263 413 264 413H6V406H33V404H32L30 401H48L46 404V406H54V404H53L51 401H69L67 404V405H76V404H77V382H76L75 379H77V326H78L78.6543 379H82L80 382H78.6914L78.963 404H79V403H84V396H86V390H88V396H90V400H93V398H92V397H114V398H113V400H116V403H119V401H120V398H119V397H128V365H138V397H140V399H142V390C142 388.343 143.343 387 145 387H146V391H145C144.448 391 144 391.448 144 392V399H146V397H152V365H162V397H166V399H169V397H171V390C171 388.343 172.343 387 174 387H175V391H174C173.448 391 173 391.448 173 392V397H178V365H188V397H189V399H194V397H191V394H194V392H191V389H193V383H192L191 380H193V326Z" fill="#D94141"/>
<path d="M103.677 442.756C113.698 442.267 124.62 442 136.5 442C150.461 442 163.509 442.689 175.524 443.863C176.676 440.781 178.039 439 179.5 439C181.098 439 182.579 441.132 183.796 444.765C188.888 445.379 193.773 446.079 198.441 446.847C199.436 443.172 200.667 441 202 441C203.485 441 204.843 443.696 205.891 448.162C242.647 455.109 264 466.074 264 471C264 475.926 242.647 486.891 205.891 493.838C204.843 498.304 203.485 501 202 501C200.667 501 199.436 498.828 198.441 495.153C193.773 495.921 188.888 496.621 183.796 497.235C182.579 500.868 181.098 503 179.5 503C178.039 503 176.676 501.219 175.524 498.137C163.509 499.311 150.461 500 136.5 500C124.62 500 113.698 499.733 103.677 499.244C102.483 502.879 101.046 505 99.5 505C97.8867 505 96.3925 502.691 95.1692 498.762C88.729 498.346 82.6949 497.833 77.0489 497.239C75.7872 501.481 74.2105 504 72.5 504C70.6452 504 68.9476 501.037 67.6384 496.129C54.0895 494.347 43.1042 492.066 34.3693 489.533C33.7061 492.341 32.8867 494 32 494C30.9577 494 30.0085 491.708 29.2966 487.952C12.7863 482.416 6 475.988 6 471C6 466.012 12.7863 459.584 29.2966 454.048C30.0085 450.292 30.9577 448 32 448C32.8867 448 33.7061 449.659 34.3693 452.467C43.1042 449.934 54.0895 447.653 67.6384 445.871C68.9476 440.963 70.6452 438 72.5 438C74.2105 438 75.7872 440.519 77.0489 444.761C82.6949 444.167 88.729 443.654 95.1692 443.238C96.3925 439.309 97.8867 437 99.5 437C101.046 437 102.483 439.121 103.677 442.756Z" fill="#D94141"/>
<line x1="264.5" y1="309" x2="264.5" y2="385" stroke="black" stroke-opacity="0.12"/>
<line x1="6.5" y1="309" x2="6.5" y2="385" stroke="black" stroke-opacity="0.12"/>
<path d="M16 310.5L21 313.387V307.613L16 310.5ZM256 310.5L251 307.613V313.387L256 310.5ZM20.5 311H251.5V310H20.5V311Z" fill="black" fill-opacity="0.12"/>
<path d="M48.4805 294.395H44.3672V296.949H46.4883C47.3789 296.961 48.0742 297.189 48.5742 297.635C49.0742 298.08 49.3242 298.686 49.3242 299.451C49.3242 300.221 49.0723 300.834 48.5684 301.291C48.0645 301.748 47.377 301.984 46.5059 302H43.2363V293.469H48.4805V294.395ZM44.3672 297.875V301.08H46.4238C46.9824 301.08 47.416 300.932 47.7246 300.635C48.0371 300.338 48.1934 299.939 48.1934 299.439C48.1934 298.959 48.043 298.58 47.7422 298.303C47.4453 298.025 47.0215 297.883 46.4707 297.875H44.3672ZM56.0332 298.9C56.0332 299.865 55.8125 300.643 55.3711 301.232C54.9297 301.822 54.332 302.117 53.5781 302.117C52.8086 302.117 52.2031 301.873 51.7617 301.385V304.438H50.6777V295.66H51.668L51.7207 296.363C52.1621 295.816 52.7754 295.543 53.5605 295.543C54.3223 295.543 54.9238 295.83 55.3652 296.404C55.8105 296.979 56.0332 297.777 56.0332 298.801V298.9ZM54.9492 298.777C54.9492 298.062 54.7969 297.498 54.4922 297.084C54.1875 296.67 53.7695 296.463 53.2383 296.463C52.582 296.463 52.0898 296.754 51.7617 297.336V300.365C52.0859 300.943 52.582 301.232 53.25 301.232C53.7695 301.232 54.1816 301.027 54.4863 300.617C54.7949 300.203 54.9492 299.59 54.9492 298.777ZM57.1289 298.771C57.1289 298.15 57.25 297.592 57.4922 297.096C57.7383 296.6 58.0781 296.217 58.5117 295.947C58.9492 295.678 59.4473 295.543 60.0059 295.543C60.8691 295.543 61.5664 295.842 62.0977 296.439C62.6328 297.037 62.9004 297.832 62.9004 298.824V298.9C62.9004 299.518 62.7812 300.072 62.543 300.564C62.3086 301.053 61.9707 301.434 61.5293 301.707C61.0918 301.98 60.5879 302.117 60.0176 302.117C59.1582 302.117 58.4609 301.818 57.9258 301.221C57.3945 300.623 57.1289 299.832 57.1289 298.848V298.771ZM58.2188 298.9C58.2188 299.604 58.3809 300.168 58.7051 300.594C59.0332 301.02 59.4707 301.232 60.0176 301.232C60.5684 301.232 61.0059 301.018 61.3301 300.588C61.6543 300.154 61.8164 299.549 61.8164 298.771C61.8164 298.076 61.6504 297.514 61.3184 297.084C60.9902 296.65 60.5527 296.434 60.0059 296.434C59.4707 296.434 59.0391 296.646 58.7109 297.072C58.3828 297.498 58.2188 298.107 58.2188 298.9ZM69.4395 302H68.3555V299.293H65.4434V302H64.3535V295.66H65.4434V298.408H68.3555V295.66H69.4395V302ZM73.8164 302.117C72.957 302.117 72.2578 301.836 71.7188 301.273C71.1797 300.707 70.9102 299.951 70.9102 299.006V298.807C70.9102 298.178 71.0293 297.617 71.2676 297.125C71.5098 296.629 71.8457 296.242 72.2754 295.965C72.709 295.684 73.1777 295.543 73.6816 295.543C74.5059 295.543 75.1465 295.814 75.6035 296.357C76.0605 296.9 76.2891 297.678 76.2891 298.689V299.141H71.9941C72.0098 299.766 72.1914 300.271 72.5391 300.658C72.8906 301.041 73.3359 301.232 73.875 301.232C74.2578 301.232 74.582 301.154 74.8477 300.998C75.1133 300.842 75.3457 300.635 75.5449 300.377L76.207 300.893C75.6758 301.709 74.8789 302.117 73.8164 302.117ZM73.6816 296.434C73.2441 296.434 72.877 296.594 72.5801 296.914C72.2832 297.23 72.0996 297.676 72.0293 298.25H75.2051V298.168C75.1738 297.617 75.0254 297.191 74.7598 296.891C74.4941 296.586 74.1348 296.434 73.6816 296.434ZM82.7344 302H81.6504V296.557H78.7324V302H77.6426V295.66H82.7344V302ZM88.3887 302C88.3262 301.875 88.2754 301.652 88.2363 301.332C87.7324 301.855 87.1309 302.117 86.4316 302.117C85.8066 302.117 85.293 301.941 84.8906 301.59C84.4922 301.234 84.293 300.785 84.293 300.242C84.293 299.582 84.543 299.07 85.043 298.707C85.5469 298.34 86.2539 298.156 87.1641 298.156H88.2188V297.658C88.2188 297.279 88.1055 296.979 87.8789 296.756C87.6523 296.529 87.3184 296.416 86.877 296.416C86.4902 296.416 86.166 296.514 85.9043 296.709C85.6426 296.904 85.5117 297.141 85.5117 297.418H84.4219C84.4219 297.102 84.5332 296.797 84.7559 296.504C84.9824 296.207 85.2871 295.973 85.6699 295.801C86.0566 295.629 86.4805 295.543 86.9414 295.543C87.6719 295.543 88.2441 295.727 88.6582 296.094C89.0723 296.457 89.2871 296.959 89.3027 297.6V300.518C89.3027 301.1 89.377 301.562 89.5254 301.906V302H88.3887ZM86.5898 301.174C86.9297 301.174 87.252 301.086 87.5566 300.91C87.8613 300.734 88.082 300.506 88.2188 300.225V298.924H87.3691C86.041 298.924 85.377 299.312 85.377 300.09C85.377 300.43 85.4902 300.695 85.7168 300.887C85.9434 301.078 86.2344 301.174 86.5898 301.174ZM96.1992 295.66V302H95.1094V296.557H92.9531L92.8242 298.93C92.7539 300.02 92.5703 300.799 92.2734 301.268C91.9805 301.736 91.5137 301.98 90.873 302H90.4395V301.045L90.75 301.021C91.1016 300.982 91.3535 300.779 91.5059 300.412C91.6582 300.045 91.7559 299.365 91.7988 298.373L91.916 295.66H96.1992ZM100.014 300.412L101.49 295.66H102.65L100.102 302.979C99.707 304.033 99.0801 304.561 98.2207 304.561L98.0156 304.543L97.6113 304.467V303.588L97.9043 303.611C98.2715 303.611 98.5566 303.537 98.7598 303.389C98.9668 303.24 99.1367 302.969 99.2695 302.574L99.5098 301.93L97.248 295.66H98.4316L100.014 300.412ZM106.406 296.023C107.203 296.023 107.84 296.291 108.316 296.826C108.797 297.357 109.037 298.059 109.037 298.93V299.029C109.037 299.627 108.922 300.162 108.691 300.635C108.461 301.104 108.129 301.469 107.695 301.73C107.266 301.988 106.77 302.117 106.207 302.117C105.355 302.117 104.67 301.834 104.15 301.268C103.631 300.697 103.371 299.934 103.371 298.977V298.449C103.371 297.117 103.617 296.059 104.109 295.273C104.605 294.488 105.336 294.01 106.301 293.838C106.848 293.74 107.217 293.621 107.408 293.48C107.6 293.34 107.695 293.146 107.695 292.9H108.586C108.586 293.389 108.475 293.77 108.252 294.043C108.033 294.316 107.682 294.51 107.197 294.623L106.389 294.805C105.744 294.957 105.26 295.215 104.936 295.578C104.615 295.938 104.406 296.418 104.309 297.02C104.883 296.355 105.582 296.023 106.406 296.023ZM106.195 296.914C105.664 296.914 105.242 297.094 104.93 297.453C104.617 297.809 104.461 298.303 104.461 298.936V299.029C104.461 299.709 104.617 300.248 104.93 300.646C105.246 301.041 105.672 301.238 106.207 301.238C106.746 301.238 107.172 301.039 107.484 300.641C107.797 300.242 107.953 299.66 107.953 298.895C107.953 298.297 107.795 297.818 107.479 297.459C107.166 297.096 106.738 296.914 106.195 296.914ZM115.33 302H114.246V299.293H111.334V302H110.244V295.66H111.334V298.408H114.246V295.66H115.33V302ZM118.26 297.846H119.906C120.625 297.854 121.193 298.041 121.611 298.408C122.029 298.775 122.238 299.273 122.238 299.902C122.238 300.535 122.023 301.043 121.594 301.426C121.164 301.809 120.586 302 119.859 302H117.176V295.66H118.26V297.846ZM124.5 302H123.41V295.66H124.5V302ZM118.26 298.73V301.115H119.871C120.277 301.115 120.592 301.012 120.814 300.805C121.037 300.594 121.148 300.307 121.148 299.943C121.148 299.592 121.039 299.305 120.82 299.082C120.605 298.855 120.303 298.738 119.912 298.73H118.26ZM130.494 295.66H131.578V302H130.494V297.377L127.57 302H126.486V295.66H127.57V300.289L130.494 295.66ZM130.787 293.352C130.787 293.824 130.625 294.205 130.301 294.494C129.98 294.779 129.559 294.922 129.035 294.922C128.512 294.922 128.088 294.777 127.764 294.488C127.439 294.199 127.277 293.82 127.277 293.352H128.162C128.162 293.625 128.236 293.84 128.385 293.996C128.533 294.148 128.75 294.225 129.035 294.225C129.309 294.225 129.521 294.148 129.674 293.996C129.83 293.844 129.908 293.629 129.908 293.352H130.787ZM138.27 299.299H137.479V302H136.389V295.66H137.479V298.344H138.188L140.32 295.66H141.633L139.125 298.707L141.844 302H140.467L138.27 299.299ZM148.131 298.9C148.131 299.865 147.91 300.643 147.469 301.232C147.027 301.822 146.43 302.117 145.676 302.117C144.906 302.117 144.301 301.873 143.859 301.385V304.438H142.775V295.66H143.766L143.818 296.363C144.26 295.816 144.873 295.543 145.658 295.543C146.42 295.543 147.021 295.83 147.463 296.404C147.908 296.979 148.131 297.777 148.131 298.801V298.9ZM147.047 298.777C147.047 298.062 146.895 297.498 146.59 297.084C146.285 296.67 145.867 296.463 145.336 296.463C144.68 296.463 144.188 296.754 143.859 297.336V300.365C144.184 300.943 144.68 301.232 145.348 301.232C145.867 301.232 146.279 301.027 146.584 300.617C146.893 300.203 147.047 299.59 147.047 298.777ZM152.145 302.117C151.285 302.117 150.586 301.836 150.047 301.273C149.508 300.707 149.238 299.951 149.238 299.006V298.807C149.238 298.178 149.357 297.617 149.596 297.125C149.838 296.629 150.174 296.242 150.604 295.965C151.037 295.684 151.506 295.543 152.01 295.543C152.834 295.543 153.475 295.814 153.932 296.357C154.389 296.9 154.617 297.678 154.617 298.689V299.141H150.322C150.338 299.766 150.52 300.271 150.867 300.658C151.219 301.041 151.664 301.232 152.203 301.232C152.586 301.232 152.91 301.154 153.176 300.998C153.441 300.842 153.674 300.635 153.873 300.377L154.535 300.893C154.004 301.709 153.207 302.117 152.145 302.117ZM152.01 296.434C151.572 296.434 151.205 296.594 150.908 296.914C150.611 297.23 150.428 297.676 150.357 298.25H153.533V298.168C153.502 297.617 153.354 297.191 153.088 296.891C152.822 296.586 152.463 296.434 152.01 296.434ZM159.979 295.66H161.062V302H159.979V297.377L157.055 302H155.971V295.66H157.055V300.289L159.979 295.66ZM160.271 293.352C160.271 293.824 160.109 294.205 159.785 294.494C159.465 294.779 159.043 294.922 158.52 294.922C157.996 294.922 157.572 294.777 157.248 294.488C156.924 294.199 156.762 293.82 156.762 293.352H157.646C157.646 293.625 157.721 293.84 157.869 293.996C158.018 294.148 158.234 294.225 158.52 294.225C158.793 294.225 159.006 294.148 159.158 293.996C159.314 293.844 159.393 293.629 159.393 293.352H160.271ZM165.346 301.232C165.732 301.232 166.07 301.115 166.359 300.881C166.648 300.646 166.809 300.354 166.84 300.002H167.865C167.846 300.365 167.721 300.711 167.49 301.039C167.26 301.367 166.951 301.629 166.564 301.824C166.182 302.02 165.775 302.117 165.346 302.117C164.482 302.117 163.795 301.83 163.283 301.256C162.775 300.678 162.521 299.889 162.521 298.889V298.707C162.521 298.09 162.635 297.541 162.861 297.061C163.088 296.58 163.412 296.207 163.834 295.941C164.26 295.676 164.762 295.543 165.34 295.543C166.051 295.543 166.641 295.756 167.109 296.182C167.582 296.607 167.834 297.16 167.865 297.84H166.84C166.809 297.43 166.652 297.094 166.371 296.832C166.094 296.566 165.75 296.434 165.34 296.434C164.789 296.434 164.361 296.633 164.057 297.031C163.756 297.426 163.605 297.998 163.605 298.748V298.953C163.605 299.684 163.756 300.246 164.057 300.641C164.357 301.035 164.787 301.232 165.346 301.232ZM171.715 302.117C170.855 302.117 170.156 301.836 169.617 301.273C169.078 300.707 168.809 299.951 168.809 299.006V298.807C168.809 298.178 168.928 297.617 169.166 297.125C169.408 296.629 169.744 296.242 170.174 295.965C170.607 295.684 171.076 295.543 171.58 295.543C172.404 295.543 173.045 295.814 173.502 296.357C173.959 296.9 174.188 297.678 174.188 298.689V299.141H169.893C169.908 299.766 170.09 300.271 170.438 300.658C170.789 301.041 171.234 301.232 171.773 301.232C172.156 301.232 172.48 301.154 172.746 300.998C173.012 300.842 173.244 300.635 173.443 300.377L174.105 300.893C173.574 301.709 172.777 302.117 171.715 302.117ZM171.58 296.434C171.143 296.434 170.775 296.594 170.479 296.914C170.182 297.23 169.998 297.676 169.928 298.25H173.104V298.168C173.072 297.617 172.924 297.191 172.658 296.891C172.393 296.586 172.033 296.434 171.58 296.434ZM180.803 298.9C180.803 299.865 180.582 300.643 180.141 301.232C179.699 301.822 179.102 302.117 178.348 302.117C177.578 302.117 176.973 301.873 176.531 301.385V304.438H175.447V295.66H176.438L176.49 296.363C176.932 295.816 177.545 295.543 178.33 295.543C179.092 295.543 179.693 295.83 180.135 296.404C180.58 296.979 180.803 297.777 180.803 298.801V298.9ZM179.719 298.777C179.719 298.062 179.566 297.498 179.262 297.084C178.957 296.67 178.539 296.463 178.008 296.463C177.352 296.463 176.859 296.754 176.531 297.336V300.365C176.855 300.943 177.352 301.232 178.02 301.232C178.539 301.232 178.951 301.027 179.256 300.617C179.564 300.203 179.719 299.59 179.719 298.777ZM193.014 298.186H185.186V297.301H193.014V298.186ZM202.576 295.695C202.576 296.121 202.463 296.5 202.236 296.832C202.014 297.164 201.711 297.424 201.328 297.611C201.773 297.803 202.125 298.082 202.383 298.449C202.645 298.816 202.775 299.232 202.775 299.697C202.775 300.436 202.525 301.023 202.025 301.461C201.529 301.898 200.875 302.117 200.062 302.117C199.242 302.117 198.584 301.898 198.088 301.461C197.596 301.02 197.35 300.432 197.35 299.697C197.35 299.236 197.475 298.82 197.725 298.449C197.979 298.078 198.328 297.797 198.773 297.605C198.395 297.418 198.096 297.158 197.877 296.826C197.658 296.494 197.549 296.117 197.549 295.695C197.549 294.977 197.779 294.406 198.24 293.984C198.701 293.562 199.309 293.352 200.062 293.352C200.812 293.352 201.418 293.562 201.879 293.984C202.344 294.406 202.576 294.977 202.576 295.695ZM201.691 299.674C201.691 299.197 201.539 298.809 201.234 298.508C200.934 298.207 200.539 298.057 200.051 298.057C199.562 298.057 199.17 298.205 198.873 298.502C198.58 298.799 198.434 299.189 198.434 299.674C198.434 300.158 198.576 300.539 198.861 300.816C199.15 301.094 199.551 301.232 200.062 301.232C200.57 301.232 200.969 301.094 201.258 300.816C201.547 300.535 201.691 300.154 201.691 299.674ZM200.062 294.242C199.637 294.242 199.291 294.375 199.025 294.641C198.764 294.902 198.633 295.26 198.633 295.713C198.633 296.146 198.762 296.498 199.02 296.768C199.281 297.033 199.629 297.166 200.062 297.166C200.496 297.166 200.842 297.033 201.1 296.768C201.361 296.498 201.492 296.146 201.492 295.713C201.492 295.279 201.357 294.926 201.088 294.652C200.818 294.379 200.477 294.242 200.062 294.242ZM204.217 303.699L203.602 303.277C203.969 302.766 204.16 302.238 204.176 301.695V300.717H205.236V301.566C205.236 301.961 205.139 302.355 204.943 302.75C204.752 303.145 204.51 303.461 204.217 303.699ZM206.994 297.723L207.428 293.469H211.799V294.471H208.348L208.09 296.797C208.508 296.551 208.982 296.428 209.514 296.428C210.291 296.428 210.908 296.686 211.365 297.201C211.822 297.713 212.051 298.406 212.051 299.281C212.051 300.16 211.812 300.854 211.336 301.361C210.863 301.865 210.201 302.117 209.35 302.117C208.596 302.117 207.98 301.908 207.504 301.49C207.027 301.072 206.756 300.494 206.689 299.756H207.715C207.781 300.244 207.955 300.613 208.236 300.863C208.518 301.109 208.889 301.232 209.35 301.232C209.854 301.232 210.248 301.061 210.533 300.717C210.822 300.373 210.967 299.898 210.967 299.293C210.967 298.723 210.811 298.266 210.498 297.922C210.189 297.574 209.777 297.4 209.262 297.4C208.789 297.4 208.418 297.504 208.148 297.711L207.861 297.945L206.994 297.723ZM215.889 301.232C216.275 301.232 216.613 301.115 216.902 300.881C217.191 300.646 217.352 300.354 217.383 300.002H218.408C218.389 300.365 218.264 300.711 218.033 301.039C217.803 301.367 217.494 301.629 217.107 301.824C216.725 302.02 216.318 302.117 215.889 302.117C215.025 302.117 214.338 301.83 213.826 301.256C213.318 300.678 213.064 299.889 213.064 298.889V298.707C213.064 298.09 213.178 297.541 213.404 297.061C213.631 296.58 213.955 296.207 214.377 295.941C214.803 295.676 215.305 295.543 215.883 295.543C216.594 295.543 217.184 295.756 217.652 296.182C218.125 296.607 218.377 297.16 218.408 297.84H217.383C217.352 297.43 217.195 297.094 216.914 296.832C216.637 296.566 216.293 296.434 215.883 296.434C215.332 296.434 214.904 296.633 214.6 297.031C214.299 297.426 214.148 297.998 214.148 298.748V298.953C214.148 299.684 214.299 300.246 214.6 300.641C214.9 301.035 215.33 301.232 215.889 301.232ZM223.277 300.564L225.434 295.66H226.787V302H225.703V297.389L223.652 302H222.902L220.811 297.289V302H219.727V295.66H221.133L223.277 300.564Z" fill="black" fill-opacity="0.7"/>
<path d="M107.601 92H108.598L111.617 142H115.572L112.583 145H111.798L112.221 152H120.554V129H128.524V152H130.517V147C130.517 145.343 131.855 144 133.506 144H134.502V148H133.506C132.955 148 132.509 148.448 132.509 149V152H144.465V129H152.435V152H154.428V147C154.428 145.343 155.766 144 157.417 144H158.413V148H157.417C156.867 148 156.421 148.448 156.421 149V152H168.376V129H176.347V152H178.339V147C178.339 145.343 179.678 144 181.328 144H182.325V148H181.328C180.778 148 180.332 148.448 180.332 149V152H189.299V129H197.269V139H205.24V142H203.247V146H211.218V148H209.225V151H214.207V125L211.218 122H214.207V94H215.203V122H219.188L216.199 125V151H227.159V152H267.011V161C267.011 166 268.506 170 270 170H0C1.37003 163.992 2.39821 160.873 5.97786 157H17.9336V155L15.941 153H28.893L26.9004 155V157H33.8745V155L31.8819 153H49.8155L47.8229 155H46.8266V157H53.7554L52.6686 133H51.8081L49.8155 131H52.578L51.31 103H52.3063L54.0815 131H56.7897L54.797 133H54.2083L55.73 157H66.7528V153H64.7601V151H67.7491V146H70.738V151H76.7159V153H73.7269V157H84.6863V155L82.6937 153H87.6753V150H89.6679V153H100.627L98.6347 155H97.6384V157H104.613V153C104.613 151.343 105.951 150 107.601 150H108.598V154H107.601C107.051 154 106.605 154.448 106.605 155V157H110.545L110.002 145H109.594L107.601 142H109.866L107.601 92Z" fill="#D94141"/>
<path d="M270 221.943C269.327 216.933 256.979 205.71 212.972 200.9C212.257 200.822 211.534 200.743 210.802 200.662C208.797 197.722 206.365 196 203.745 196C201.582 196 199.547 197.174 197.774 199.239C140.128 193.046 47.0685 185.293 0 221.943V222.057C46.8701 258.552 139.345 251.019 197.043 244.84C198.978 247.473 201.278 249 203.745 249C206.67 249 209.36 246.855 211.485 243.263C211.985 243.208 212.48 243.154 212.972 243.1C256.979 238.29 269.327 227.067 270 222.057V221.943Z" fill="#D94141"/>
<line x1="269.5" y1="71" x2="269.5" y2="147" stroke="black" stroke-opacity="0.12"/>
<line x1="0.5" y1="71" x2="0.5" y2="147" stroke="black" stroke-opacity="0.12"/>
<path d="M10 72.5L15 75.3868V69.6132L10 72.5ZM261 72.5L256 69.6132V75.3868L261 72.5ZM14.5 73H256.5V72H14.5V73Z" fill="black" fill-opacity="0.12"/>
<path d="M59.3027 56.3945H55.1895V58.9492H57.3105C58.2012 58.9609 58.8965 59.1895 59.3965 59.6348C59.8965 60.0801 60.1465 60.6855 60.1465 61.4512C60.1465 62.2207 59.8945 62.834 59.3906 63.291C58.8867 63.748 58.1992 63.9844 57.3281 64H54.0586V55.4688H59.3027V56.3945ZM55.1895 59.875V63.0801H57.2461C57.8047 63.0801 58.2383 62.9316 58.5469 62.6348C58.8594 62.3379 59.0156 61.9395 59.0156 61.4395C59.0156 60.959 58.8652 60.5801 58.5645 60.3027C58.2676 60.0254 57.8438 59.8828 57.293 59.875H55.1895ZM66.8555 60.9004C66.8555 61.8652 66.6348 62.6426 66.1934 63.2324C65.752 63.8223 65.1543 64.1172 64.4004 64.1172C63.6309 64.1172 63.0254 63.873 62.584 63.3848V66.4375H61.5V57.6602H62.4902L62.543 58.3633C62.9844 57.8164 63.5977 57.543 64.3828 57.543C65.1445 57.543 65.7461 57.8301 66.1875 58.4043C66.6328 58.9785 66.8555 59.7773 66.8555 60.8008V60.9004ZM65.7715 60.7773C65.7715 60.0625 65.6191 59.498 65.3145 59.084C65.0098 58.6699 64.5918 58.4629 64.0605 58.4629C63.4043 58.4629 62.9121 58.7539 62.584 59.3359V62.3652C62.9082 62.9434 63.4043 63.2324 64.0723 63.2324C64.5918 63.2324 65.0039 63.0273 65.3086 62.6172C65.6172 62.2031 65.7715 61.5898 65.7715 60.7773ZM67.9512 60.7715C67.9512 60.1504 68.0723 59.5918 68.3145 59.0957C68.5605 58.5996 68.9004 58.2168 69.334 57.9473C69.7715 57.6777 70.2695 57.543 70.8281 57.543C71.6914 57.543 72.3887 57.8418 72.9199 58.4395C73.4551 59.0371 73.7227 59.832 73.7227 60.8242V60.9004C73.7227 61.5176 73.6035 62.0723 73.3652 62.5645C73.1309 63.0527 72.793 63.4336 72.3516 63.707C71.9141 63.9805 71.4102 64.1172 70.8398 64.1172C69.9805 64.1172 69.2832 63.8184 68.748 63.2207C68.2168 62.623 67.9512 61.832 67.9512 60.8477V60.7715ZM69.041 60.9004C69.041 61.6035 69.2031 62.168 69.5273 62.5938C69.8555 63.0195 70.293 63.2324 70.8398 63.2324C71.3906 63.2324 71.8281 63.0176 72.1523 62.5879C72.4766 62.1543 72.6387 61.5488 72.6387 60.7715C72.6387 60.0762 72.4727 59.5137 72.1406 59.084C71.8125 58.6504 71.375 58.4336 70.8281 58.4336C70.293 58.4336 69.8613 58.6465 69.5332 59.0723C69.2051 59.498 69.041 60.1074 69.041 60.9004ZM80.2617 64H79.1777V61.293H76.2656V64H75.1758V57.6602H76.2656V60.4082H79.1777V57.6602H80.2617V64ZM84.6387 64.1172C83.7793 64.1172 83.0801 63.8359 82.541 63.2734C82.002 62.707 81.7324 61.9512 81.7324 61.0059V60.8066C81.7324 60.1777 81.8516 59.6172 82.0898 59.125C82.332 58.6289 82.668 58.2422 83.0977 57.9648C83.5312 57.6836 84 57.543 84.5039 57.543C85.3281 57.543 85.9688 57.8145 86.4258 58.3574C86.8828 58.9004 87.1113 59.6777 87.1113 60.6895V61.1406H82.8164C82.832 61.7656 83.0137 62.2715 83.3613 62.6582C83.7129 63.041 84.1582 63.2324 84.6973 63.2324C85.0801 63.2324 85.4043 63.1543 85.6699 62.998C85.9355 62.8418 86.168 62.6348 86.3672 62.377L87.0293 62.8926C86.498 63.709 85.7012 64.1172 84.6387 64.1172ZM84.5039 58.4336C84.0664 58.4336 83.6992 58.5938 83.4023 58.9141C83.1055 59.2305 82.9219 59.6758 82.8516 60.25H86.0273V60.168C85.9961 59.6172 85.8477 59.1914 85.582 58.8906C85.3164 58.5859 84.957 58.4336 84.5039 58.4336ZM93.5508 64H92.4668V61.293H89.5547V64H88.4648V57.6602H89.5547V60.4082H92.4668V57.6602H93.5508V64ZM95.0098 60.7715C95.0098 60.1504 95.1309 59.5918 95.373 59.0957C95.6191 58.5996 95.959 58.2168 96.3926 57.9473C96.8301 57.6777 97.3281 57.543 97.8867 57.543C98.75 57.543 99.4473 57.8418 99.9785 58.4395C100.514 59.0371 100.781 59.832 100.781 60.8242V60.9004C100.781 61.5176 100.662 62.0723 100.424 62.5645C100.189 63.0527 99.8516 63.4336 99.4102 63.707C98.9727 63.9805 98.4688 64.1172 97.8984 64.1172C97.0391 64.1172 96.3418 63.8184 95.8066 63.2207C95.2754 62.623 95.0098 61.832 95.0098 60.8477V60.7715ZM96.0996 60.9004C96.0996 61.6035 96.2617 62.168 96.5859 62.5938C96.9141 63.0195 97.3516 63.2324 97.8984 63.2324C98.4492 63.2324 98.8867 63.0176 99.2109 62.5879C99.5352 62.1543 99.6973 61.5488 99.6973 60.7715C99.6973 60.0762 99.5312 59.5137 99.1992 59.084C98.8711 58.6504 98.4336 58.4336 97.8867 58.4336C97.3516 58.4336 96.9199 58.6465 96.5918 59.0723C96.2637 59.498 96.0996 60.1074 96.0996 60.9004ZM104.684 63.2324C105.07 63.2324 105.408 63.1152 105.697 62.8809C105.986 62.6465 106.146 62.3535 106.178 62.002H107.203C107.184 62.3652 107.059 62.7109 106.828 63.0391C106.598 63.3672 106.289 63.6289 105.902 63.8242C105.52 64.0195 105.113 64.1172 104.684 64.1172C103.82 64.1172 103.133 63.8301 102.621 63.2559C102.113 62.6777 101.859 61.8887 101.859 60.8887V60.707C101.859 60.0898 101.973 59.541 102.199 59.0605C102.426 58.5801 102.75 58.207 103.172 57.9414C103.598 57.6758 104.1 57.543 104.678 57.543C105.389 57.543 105.979 57.7559 106.447 58.1816C106.92 58.6074 107.172 59.1602 107.203 59.8398H106.178C106.146 59.4297 105.99 59.0938 105.709 58.832C105.432 58.5664 105.088 58.4336 104.678 58.4336C104.127 58.4336 103.699 58.6328 103.395 59.0312C103.094 59.4258 102.943 59.998 102.943 60.748V60.9531C102.943 61.6836 103.094 62.2461 103.395 62.6406C103.695 63.0352 104.125 63.2324 104.684 63.2324ZM113.602 64H112.518V61.293H109.605V64H108.516V57.6602H109.605V60.4082H112.518V57.6602H113.602V64ZM116.531 59.8457H118.178C118.896 59.8535 119.465 60.041 119.883 60.4082C120.301 60.7754 120.51 61.2734 120.51 61.9023C120.51 62.5352 120.295 63.043 119.865 63.4258C119.436 63.8086 118.857 64 118.131 64H115.447V57.6602H116.531V59.8457ZM122.771 64H121.682V57.6602H122.771V64ZM116.531 60.7305V63.1152H118.143C118.549 63.1152 118.863 63.0117 119.086 62.8047C119.309 62.5938 119.42 62.3066 119.42 61.9434C119.42 61.5918 119.311 61.3047 119.092 61.082C118.877 60.8555 118.574 60.7383 118.184 60.7305H116.531ZM128.766 57.6602H129.85V64H128.766V59.377L125.842 64H124.758V57.6602H125.842V62.2891L128.766 57.6602ZM129.059 55.3516C129.059 55.8242 128.896 56.2051 128.572 56.4941C128.252 56.7793 127.83 56.9219 127.307 56.9219C126.783 56.9219 126.359 56.7773 126.035 56.4883C125.711 56.1992 125.549 55.8203 125.549 55.3516H126.434C126.434 55.625 126.508 55.8398 126.656 55.9961C126.805 56.1484 127.021 56.2246 127.307 56.2246C127.58 56.2246 127.793 56.1484 127.945 55.9961C128.102 55.8438 128.18 55.6289 128.18 55.3516H129.059ZM136.541 61.2988H135.75V64H134.66V57.6602H135.75V60.3438H136.459L138.592 57.6602H139.904L137.396 60.707L140.115 64H138.738L136.541 61.2988ZM146.402 60.9004C146.402 61.8652 146.182 62.6426 145.74 63.2324C145.299 63.8223 144.701 64.1172 143.947 64.1172C143.178 64.1172 142.572 63.873 142.131 63.3848V66.4375H141.047V57.6602H142.037L142.09 58.3633C142.531 57.8164 143.145 57.543 143.93 57.543C144.691 57.543 145.293 57.8301 145.734 58.4043C146.18 58.9785 146.402 59.7773 146.402 60.8008V60.9004ZM145.318 60.7773C145.318 60.0625 145.166 59.498 144.861 59.084C144.557 58.6699 144.139 58.4629 143.607 58.4629C142.951 58.4629 142.459 58.7539 142.131 59.3359V62.3652C142.455 62.9434 142.951 63.2324 143.619 63.2324C144.139 63.2324 144.551 63.0273 144.855 62.6172C145.164 62.2031 145.318 61.5898 145.318 60.7773ZM150.416 64.1172C149.557 64.1172 148.857 63.8359 148.318 63.2734C147.779 62.707 147.51 61.9512 147.51 61.0059V60.8066C147.51 60.1777 147.629 59.6172 147.867 59.125C148.109 58.6289 148.445 58.2422 148.875 57.9648C149.309 57.6836 149.777 57.543 150.281 57.543C151.105 57.543 151.746 57.8145 152.203 58.3574C152.66 58.9004 152.889 59.6777 152.889 60.6895V61.1406H148.594C148.609 61.7656 148.791 62.2715 149.139 62.6582C149.49 63.041 149.936 63.2324 150.475 63.2324C150.857 63.2324 151.182 63.1543 151.447 62.998C151.713 62.8418 151.945 62.6348 152.145 62.377L152.807 62.8926C152.275 63.709 151.479 64.1172 150.416 64.1172ZM150.281 58.4336C149.844 58.4336 149.477 58.5938 149.18 58.9141C148.883 59.2305 148.699 59.6758 148.629 60.25H151.805V60.168C151.773 59.6172 151.625 59.1914 151.359 58.8906C151.094 58.5859 150.734 58.4336 150.281 58.4336ZM158.25 57.6602H159.334V64H158.25V59.377L155.326 64H154.242V57.6602H155.326V62.2891L158.25 57.6602ZM158.543 55.3516C158.543 55.8242 158.381 56.2051 158.057 56.4941C157.736 56.7793 157.314 56.9219 156.791 56.9219C156.268 56.9219 155.844 56.7773 155.52 56.4883C155.195 56.1992 155.033 55.8203 155.033 55.3516H155.918C155.918 55.625 155.992 55.8398 156.141 55.9961C156.289 56.1484 156.506 56.2246 156.791 56.2246C157.064 56.2246 157.277 56.1484 157.43 55.9961C157.586 55.8438 157.664 55.6289 157.664 55.3516H158.543ZM163.617 63.2324C164.004 63.2324 164.342 63.1152 164.631 62.8809C164.92 62.6465 165.08 62.3535 165.111 62.002H166.137C166.117 62.3652 165.992 62.7109 165.762 63.0391C165.531 63.3672 165.223 63.6289 164.836 63.8242C164.453 64.0195 164.047 64.1172 163.617 64.1172C162.754 64.1172 162.066 63.8301 161.555 63.2559C161.047 62.6777 160.793 61.8887 160.793 60.8887V60.707C160.793 60.0898 160.906 59.541 161.133 59.0605C161.359 58.5801 161.684 58.207 162.105 57.9414C162.531 57.6758 163.033 57.543 163.611 57.543C164.322 57.543 164.912 57.7559 165.381 58.1816C165.854 58.6074 166.105 59.1602 166.137 59.8398H165.111C165.08 59.4297 164.924 59.0938 164.643 58.832C164.365 58.5664 164.021 58.4336 163.611 58.4336C163.061 58.4336 162.633 58.6328 162.328 59.0312C162.027 59.4258 161.877 59.998 161.877 60.748V60.9531C161.877 61.6836 162.027 62.2461 162.328 62.6406C162.629 63.0352 163.059 63.2324 163.617 63.2324ZM169.986 64.1172C169.127 64.1172 168.428 63.8359 167.889 63.2734C167.35 62.707 167.08 61.9512 167.08 61.0059V60.8066C167.08 60.1777 167.199 59.6172 167.438 59.125C167.68 58.6289 168.016 58.2422 168.445 57.9648C168.879 57.6836 169.348 57.543 169.852 57.543C170.676 57.543 171.316 57.8145 171.773 58.3574C172.23 58.9004 172.459 59.6777 172.459 60.6895V61.1406H168.164C168.18 61.7656 168.361 62.2715 168.709 62.6582C169.061 63.041 169.506 63.2324 170.045 63.2324C170.428 63.2324 170.752 63.1543 171.018 62.998C171.283 62.8418 171.516 62.6348 171.715 62.377L172.377 62.8926C171.846 63.709 171.049 64.1172 169.986 64.1172ZM169.852 58.4336C169.414 58.4336 169.047 58.5938 168.75 58.9141C168.453 59.2305 168.27 59.6758 168.199 60.25H171.375V60.168C171.344 59.6172 171.195 59.1914 170.93 58.8906C170.664 58.5859 170.305 58.4336 169.852 58.4336ZM179.074 60.9004C179.074 61.8652 178.854 62.6426 178.412 63.2324C177.971 63.8223 177.373 64.1172 176.619 64.1172C175.85 64.1172 175.244 63.873 174.803 63.3848V66.4375H173.719V57.6602H174.709L174.762 58.3633C175.203 57.8164 175.816 57.543 176.602 57.543C177.363 57.543 177.965 57.8301 178.406 58.4043C178.852 58.9785 179.074 59.7773 179.074 60.8008V60.9004ZM177.99 60.7773C177.99 60.0625 177.838 59.498 177.533 59.084C177.229 58.6699 176.811 58.4629 176.279 58.4629C175.623 58.4629 175.131 58.7539 174.803 59.3359V62.3652C175.127 62.9434 175.623 63.2324 176.291 63.2324C176.811 63.2324 177.223 63.0273 177.527 62.6172C177.836 62.2031 177.99 61.5898 177.99 60.7773ZM191.285 60.1855H183.457V59.3008H191.285V60.1855ZM199.828 60.25C199.602 60.5195 199.33 60.7363 199.014 60.9004C198.701 61.0645 198.357 61.1465 197.982 61.1465C197.49 61.1465 197.061 61.0254 196.693 60.7832C196.33 60.541 196.049 60.2012 195.85 59.7637C195.65 59.3223 195.551 58.8359 195.551 58.3047C195.551 57.7344 195.658 57.2207 195.873 56.7637C196.092 56.3066 196.4 55.957 196.799 55.7148C197.197 55.4727 197.662 55.3516 198.193 55.3516C199.037 55.3516 199.701 55.668 200.186 56.3008C200.674 56.9297 200.918 57.7891 200.918 58.8789V59.1953C200.918 60.8555 200.59 62.0684 199.934 62.834C199.277 63.5957 198.287 63.9863 196.963 64.0059H196.752V63.0918H196.98C197.875 63.0762 198.562 62.8438 199.043 62.3945C199.523 61.9414 199.785 61.2266 199.828 60.25ZM198.158 60.25C198.521 60.25 198.855 60.1387 199.16 59.916C199.469 59.6934 199.693 59.418 199.834 59.0898V58.6562C199.834 57.9453 199.68 57.3672 199.371 56.9219C199.062 56.4766 198.672 56.2539 198.199 56.2539C197.723 56.2539 197.34 56.4375 197.051 56.8047C196.762 57.168 196.617 57.6484 196.617 58.2461C196.617 58.8281 196.756 59.3086 197.033 59.6875C197.314 60.0625 197.689 60.25 198.158 60.25ZM205.066 63.2324C205.453 63.2324 205.791 63.1152 206.08 62.8809C206.369 62.6465 206.529 62.3535 206.561 62.002H207.586C207.566 62.3652 207.441 62.7109 207.211 63.0391C206.98 63.3672 206.672 63.6289 206.285 63.8242C205.902 64.0195 205.496 64.1172 205.066 64.1172C204.203 64.1172 203.516 63.8301 203.004 63.2559C202.496 62.6777 202.242 61.8887 202.242 60.8887V60.707C202.242 60.0898 202.355 59.541 202.582 59.0605C202.809 58.5801 203.133 58.207 203.555 57.9414C203.98 57.6758 204.482 57.543 205.061 57.543C205.771 57.543 206.361 57.7559 206.83 58.1816C207.303 58.6074 207.555 59.1602 207.586 59.8398H206.561C206.529 59.4297 206.373 59.0938 206.092 58.832C205.814 58.5664 205.471 58.4336 205.061 58.4336C204.51 58.4336 204.082 58.6328 203.777 59.0312C203.477 59.4258 203.326 59.998 203.326 60.748V60.9531C203.326 61.6836 203.477 62.2461 203.777 62.6406C204.078 63.0352 204.508 63.2324 205.066 63.2324ZM212.455 62.5645L214.611 57.6602H215.965V64H214.881V59.3887L212.83 64H212.08L209.988 59.2891V64H208.904V57.6602H210.311L212.455 62.5645Z" fill="black" fill-opacity="0.7"/>
</g>
<defs>
<clipPath id="clip0_1136_772">
<rect width="547" height="816" fill="white"/>
</clipPath>
</defs>
</svg>
