<svg width="232" height="40" viewBox="0 0 232 40" fill="none" xmlns="http://www.w3.org/2000/svg">
<path d="M232 0V40L216 25L200 40V0H232Z" fill="#D94141"/>
<path d="M225 0V24H207V0H225Z" fill="white"/>
<path d="M215.658 24.6352L200.5 38.8459V0.5H231.5V38.8459L216.342 24.6352L216 24.3146L215.658 24.6352Z" stroke="black" stroke-opacity="0.12"/>
<path d="M192 0L178 40H174L160 0H192Z" fill="#29A0CC"/>
<path d="M174.355 39.5L160.705 0.5H191.295L177.645 39.5H174.355Z" stroke="black" stroke-opacity="0.12"/>
<path d="M152 0V40H120V0H152Z" fill="#D94141"/>
<path d="M152 16V24H120V16H152Z" fill="#E6DF7F"/>
<path d="M140 0V40H132V0H140Z" fill="#E6DF7F"/>
<path d="M151.5 0.5V39.5H120.5V0.5H151.5Z" stroke="black" stroke-opacity="0.12"/>
<path d="M112 0V40H80V0H112Z" fill="white"/>
<path d="M90 0V40H80V0H90Z" fill="#29A0CC"/>
<path d="M112 0V40H102V0H112Z" fill="#29A0CC"/>
<path d="M111.5 0.5V39.5H80.5V0.5H111.5Z" stroke="black" stroke-opacity="0.12"/>
<path d="M72 0V40L56 25L40 40V0H72Z" fill="#D94141"/>
<path d="M65 0V24H47V0H65Z" fill="white"/>
<path d="M55.658 24.6352L40.5 38.8459V0.5H71.5V38.8459L56.342 24.6352L56 24.3146L55.658 24.6352Z" stroke="black" stroke-opacity="0.12"/>
<path d="M32 0L18 40H14L0 0H32Z" fill="#D94141"/>
<path d="M26 0L16 31L6 0H26Z" fill="white"/>
<path d="M21 0L16 18L11 0H21Z" fill="#29A0CC"/>
<path d="M14.3547 39.5L0.704741 0.5H31.2953L17.6453 39.5H14.3547Z" stroke="black" stroke-opacity="0.12"/>
</svg>
