<svg width="912" height="624" viewBox="0 0 912 624" fill="none" xmlns="http://www.w3.org/2000/svg">
<rect x="0.5" y="0.5" width="911" height="623" stroke="black" stroke-opacity="0.12"/>
<path d="M24 276.785V149.47C26.2615 148.861 28.6385 148.453 31.32 148.76C44.79 150.24 56.91 168.58 58.32 184.76C58.9311 191.774 59.6847 197.733 60.4572 203.843L60.4574 203.844C61.088 208.831 61.7313 213.918 62.32 219.76C63.1777 228.319 64.8699 232.505 66.0756 235.488C67.4564 238.904 68.1991 240.742 66.32 245.76C64.7597 249.929 61.1104 251.261 57.0655 252.738C52.9702 254.232 48.4693 255.875 45.32 260.76C40.0725 268.896 42.8406 279.41 44.7923 286.823C46.0169 291.474 46.92 294.904 45.32 295.76C43.4488 296.755 40.0629 293.219 34.286 287.185C31.4626 284.236 28.068 280.69 24 276.785Z" fill="#F2F2F2"/>
<path d="M24 545.11V383.802C24.6088 383.507 25.1865 383.207 25.7347 382.922C28.1001 381.694 29.9177 380.751 31.32 381.76C32.6903 382.747 32.402 384.872 32.0607 387.388C31.6549 390.38 31.1742 393.924 33.32 396.76C35.0006 398.975 37.3529 399.518 39.4959 400.012C41.561 400.488 43.4318 400.92 44.32 402.76C45.5145 405.232 43.8566 408.032 42.2563 410.735C40.7484 413.281 39.2915 415.742 40.32 417.76C41.6625 420.392 46.3624 420.569 50.6324 420.729C54.3776 420.87 57.792 420.999 58.32 422.76C58.49 423.32 58.32 423.93 55.32 427.76C53.3356 430.282 51.7916 432.067 50.6122 433.43C48.3921 435.996 47.4637 437.069 47.32 438.76C47.08 441.7 49.32 445.41 52.32 446.76C56.7456 448.741 61.8507 445.162 66.852 441.655C71.6713 438.276 76.3942 434.964 80.32 436.76C82.3246 437.675 82.8784 439.346 83.6512 441.679C84.5093 444.268 85.6372 447.672 89.32 451.76C91.4005 454.06 93.0089 455.156 94.465 456.148C96.1234 457.278 97.5842 458.274 99.32 460.76C103.47 466.71 104.87 475 102.32 476.76C99.8278 478.48 93.9257 474.269 92.4924 473.246L92.4 473.18C90.625 471.803 88.9289 470.328 87.32 468.76C87.2417 468.825 87.9676 469.646 89.1179 470.947C93.2528 475.622 102.87 486.496 100.32 490.76C99.2014 492.634 96.2339 492.4 92.7733 492.127C88.5309 491.793 83.5474 491.401 80.32 494.76C76.63 498.59 76.99 505.48 78.32 509.76C79.7491 514.36 82.618 516.919 84.7451 518.816C86.4283 520.317 87.6469 521.404 87.32 522.76C86.8045 524.907 83.0521 525.082 77.4363 525.345C70.4153 525.673 60.4819 526.138 50.32 530.76C43.8676 533.695 40.6151 536.808 37.9129 539.394C35.3216 541.874 33.2362 543.869 29.32 544.76C27.5695 545.158 25.7906 545.259 24 545.11Z" fill="#F2F2F2"/>
<path d="M887 58.7989V415.548C883.786 409.881 864.682 403.308 859.32 395.76C845.191 375.869 834.253 366.003 825.367 357.987C815.254 348.865 807.798 342.139 801.32 325.76C798.035 317.456 796.441 310.306 794.99 303.801C792.444 292.384 790.341 282.953 780.32 272.76C774.878 267.239 768.644 263.039 763.884 259.832C759.023 256.557 755.699 254.316 756.32 252.76C756.894 251.307 760.331 251.834 765.107 252.566C773.472 253.85 785.942 255.763 794.32 248.76C797.54 246.07 799.47 242.3 803.32 234.76C806.725 228.087 807.86 223.954 808.737 220.76C809.578 217.698 810.181 215.501 812.32 212.76C817.557 206.046 825.338 204.632 831.213 203.565C835.558 202.775 838.861 202.175 839.32 199.76C840.4 194.08 824.17 184.64 808.32 179.76C798.517 176.738 790.494 175.967 784.416 175.383C777.281 174.698 772.827 174.27 771.32 170.76C769.473 166.464 773.551 161.048 777.716 155.515C782.12 149.665 786.623 143.684 784.32 138.76C782.856 135.623 779.408 134.569 775.951 133.512C772.322 132.402 768.682 131.289 767.32 127.76C765.777 123.764 768.341 119.745 770.662 116.106C772.674 112.951 774.504 110.082 773.32 107.76C771.42 104.026 763.381 104.928 754.668 105.907C744.717 107.025 733.887 108.241 730.32 102.76C728.763 100.363 729.451 98.0071 730.197 95.4561C730.959 92.8462 731.781 90.0321 730.32 86.7602C727.4 80.2273 718.432 78.7016 710.013 77.2694C702.285 75.9547 695.019 74.7187 693.32 69.7602C692.459 67.2521 693.585 65.4395 695.102 62.9973C696.688 60.4443 698.702 57.2033 699.32 51.7602C700.137 44.5611 697.899 38.9089 696.214 34.6547C694.786 31.0495 693.756 28.4482 695.32 26.7602C697.385 24.5319 702.08 25.9217 706.775 27.3115C711.54 28.7221 716.305 30.1327 718.32 27.7602C719.115 26.8264 719.303 25.5139 719.146 24H753.328C752.352 25.0625 750.795 25.9819 749.312 26.8582C747.13 28.1467 745.107 29.3416 745.32 30.7602C745.7 33.3002 753.1 35.1202 760.32 34.7602C768.592 34.341 774.184 31.1724 778.729 28.5973C783.075 26.1352 786.463 24.2156 790.32 25.7602C793.72 27.1181 795.367 30.3175 796.852 33.2033C798.32 36.0554 799.631 38.6011 802.32 38.7602C805.353 38.9396 807.962 36.0672 810.114 33.697C811.801 31.8393 813.208 30.29 814.32 30.7602C815.437 31.2325 815.373 33.1838 815.297 35.4976C815.201 38.4254 815.086 41.9336 817.32 43.7602C818.996 45.1508 820.928 44.6675 823.18 44.104C825.268 43.5816 827.631 42.9904 830.32 43.7602C834.736 45.0227 836.38 48.9033 838.1 52.9636C839.691 56.7185 841.346 60.6269 845.32 62.7602C849.63 65.075 853.618 63.6627 858.576 61.9067C862.315 60.5828 881.605 59.0635 887 58.7989Z" fill="#F2F2F2"/>
<path d="M519.991 24H535.311C534.892 32.853 523.955 37.9969 522.32 38.76C517.143 41.1856 513.634 40.8464 509.631 40.4595C506.505 40.1573 503.078 39.826 498.32 40.76C489.4 42.5096 484.461 47.0058 480.285 50.8068C476.227 54.5011 472.89 57.5388 467.32 56.76C465.89 56.56 459.32 51.29 446.32 40.76C440.7 36.22 437.9 33.9 438.32 31.76C438.747 29.5823 441.738 28.9011 445.316 28.0859C448.716 27.3113 452.647 26.4157 455.414 24H494.227C498.816 30.2616 506.43 34.6918 512.32 32.76C516.788 31.2907 518.938 26.5945 519.319 25.7612L519.32 25.76C519.59 25.1697 519.811 24.5824 519.991 24Z" fill="#F2F2F2"/>
<path d="M135.223 24H417.975C413.415 30.7111 407.069 36.427 400.32 38.7602C395.858 40.3048 392.156 40.0397 388.139 39.7522C383.288 39.405 377.979 39.025 370.32 41.7602C365.087 43.6171 362.522 45.5796 359.613 47.8051C356.93 49.8583 353.953 52.1354 348.32 54.7602C339.192 58.9326 329.346 61.3092 319.32 61.7602C307.814 62.4584 300.932 60.2623 293.373 57.8499C288.699 56.3584 283.765 54.7841 277.32 53.7602C259.94 51.0002 246.92 54.6702 225.32 60.7602C204.303 66.6857 193.071 73.3947 184.666 78.4149C175.794 83.7138 170.073 87.1312 159.32 85.7602C149.119 84.4588 142.961 79.9354 136.67 75.3155C129.475 70.0305 122.107 64.6192 108.32 63.7602C97.6463 63.0952 88.8753 65.5125 83.0409 67.1205C78.6974 68.3176 75.9815 69.0661 75.32 67.7602C72.83 62.8302 106.04 41.4902 110.32 38.7602C118.245 33.6831 126.839 28.5933 135.223 24Z" fill="#F2F2F2"/>
<path d="M124.32 503.76C122.5 500.31 113.77 500.01 110.32 503.76C109.357 504.804 109.181 505.757 108.957 506.977C108.733 508.19 108.461 509.667 107.32 511.76C106.073 514.053 104.71 515.385 103.716 516.356C102.733 517.317 102.111 517.925 102.32 518.76C102.88 520.99 108.71 522.39 113.32 520.76C117.237 519.371 119.217 516.166 121.315 512.769L121.32 512.76L121.372 512.676C123.59 509.072 125.491 505.983 124.32 503.76Z" fill="#F2F2F2"/>
<path d="M643.818 45.452C643.329 44.5895 643.054 44.104 643.32 43.7601C644.82 41.8101 660.52 48.3801 660.32 54.7601C660.25 57.008 658.236 58.4301 656.247 59.8349C654.271 61.2298 652.32 62.6077 652.32 64.7601C652.32 67.2058 654.87 68.5714 657.849 70.167C661.057 71.8856 664.764 73.8709 666.32 77.7601C669.43 85.4601 662.94 97.4201 657.32 97.7601C654.608 97.9212 652.698 95.3373 650.547 92.4286C648.026 89.0197 645.176 85.1648 640.32 84.7601C637.634 84.5313 635.504 85.4779 633.741 86.2619C631.959 87.0538 630.551 87.6797 629.32 86.7601C626.87 84.9301 627.32 78.3601 630.32 73.7601C632.603 70.2637 635.554 69.1349 638.333 68.0721C641.117 67.0071 643.728 66.0084 645.32 62.7601C647.34 58.6301 646.86 52.6201 645.24 48.3801C644.741 47.0798 644.211 46.1444 643.818 45.452Z" fill="#F2F2F2"/>
<path d="M251.866 599C253.39 577 290.56 547.5 328.34 522.8C342.254 513.7 342.254 515.5 365.917 500.8L366.398 500.5C391.568 484.8 404.157 476.948 412.634 468.8C428.579 453.4 446.555 427.9 454.273 397.8C457.625 384.8 459.148 370.6 470.523 354.8C474.28 349.6 475.702 349 484.741 337.8C492.764 328.2 500.178 318.2 507.084 307.8C515.412 295 524.451 281 529.427 261.8C533.083 247.6 530.036 247.9 533.489 225.8C535.419 213.4 537.653 204.7 546.692 173.8C559.996 128.3 558.778 134.4 560.91 125.8C572.793 78 566.902 61.6 582.238 33.8C584.066 30.5 586.097 27.2 588.23 24M199.564 599C198.548 592 212.861 573 232.875 554.8C252.888 536.6 267.811 526.3 292.795 511.8C327.934 491.3 336.973 491.9 344.59 477.8C351.394 465.3 350.074 454.3 360.839 447.8C370.995 441.7 382.471 445.2 386.229 437.8C387.955 434.3 387.549 429.4 385.213 427.8C382.674 426 379.12 429.2 369.979 430.8L369.818 430.827C363.823 431.81 360.318 432.386 358.808 430.8C354.542 426.2 363.987 401.8 382.166 394.8C394.049 390.2 404.408 395.2 412.634 386.8C415.376 384 418.017 379.7 416.697 377.8C414.767 375 406.236 380.1 393.338 381.8C376.682 384 373.331 377.8 360.839 379.8C346.215 382.1 345.504 391.4 330.371 398.8C309.45 409 297.466 397.7 275.529 402.8C258.874 406.7 255.421 415.7 226.781 443.8C197.024 473 203.93 460.1 146.55 509.8C120.347 532.5 105.113 547.1 89.6765 542.8C81.3486 540.5 72.1068 532.5 60.2244 535.8C58.0916 536.4 53.2168 537.8 50.0685 541.8C43.5687 550.3 51.9979 567 54.9433 576C57.8887 585 64.4492 595.5 60.2244 599.5M25.3896 107.6C43.7718 116.4 63.8805 128.8 83.0751 146.3C124.714 184.3 157.416 241.9 157.213 290.3C157.213 307.3 156.198 324.4 154.166 341.3C149.799 372.2 144.112 380.2 148.073 391.3C155.284 411.4 190.118 430.1 219.164 423.3C243.335 417.6 242.827 399.2 274.006 374.3C304.76 349.815 337.441 342.009 361.304 336.31L361.347 336.3C421.774 321.9 438.938 340 465.953 320.3C483.522 307.5 491.241 287.4 506.576 247.3C516.123 222.3 514.701 216.9 528.919 176.3C541.309 140.8 542.427 144.9 548.215 124.3C557.051 92.9 559.692 64.9 561.418 45.3C562.129 37.5 562.535 30.4 562.942 24M474.585 599C487.889 584.4 511.35 561.8 504.037 546.8C496.725 531.8 481.796 533.1 467.476 533.8C446.961 534.9 436.805 546.2 431.93 541.8C427.056 537.4 431.118 521.9 441.071 512.8C451.023 503.7 461.484 506.4 474.585 501.8C494.768 494.745 504.823 476.139 514.017 459.127L514.193 458.8C538.06 414.5 521.81 386.1 543.645 371.8C559.59 361.3 580.511 368.4 584.269 357.8C587.214 349.6 576.144 341.2 580.207 328.8C581.933 323.6 584.574 322.7 588.331 317.8C602.143 299.7 588.128 283.4 599.503 258.8C605.19 246.3 611.69 244.3 610.674 235.8C609.354 224.9 597.573 219.6 599.503 212.8C600.823 208.1 607.018 209 612.705 204.8C628.346 193.1 611.588 163.8 625.908 147.8C635.759 136.8 647.743 146.2 663.485 133.8C679.22 121.405 681.662 100.418 682.78 90.8126L682.781 90.8C684.305 77.5 681.562 67.7 676.688 48.8C674.555 40.4 671.914 32.2 668.969 24M512.365 599C531.154 590.5 542.325 576 544.661 567.8C547.397 558.194 546.794 545.8 538.567 537.8C531.154 530.6 521.709 539 506.068 532.8C503.022 531.6 490.428 526.6 488.803 517.8C487.077 508.8 497.639 500.3 506.068 492.8C526.888 474.1 543.239 453 551.77 438.8C569.644 409 566.801 386.3 585.284 372.8C587.519 371.2 592.292 368 595.44 361.8C600.214 352.3 595.948 345.6 596.456 333.8C597.167 316.8 606.307 317.5 608.643 299.8C611.182 281.1 601.331 277.8 605.596 261.8C609.354 247.7 618.494 244.7 616.768 234.8C614.94 224.5 603.87 220.9 605.596 214.8C607.018 209.9 614.533 211.8 620.83 205.8C630.174 196.9 622.354 184.3 629.97 170.8C635.15 161.7 642.259 161.3 653.329 153.8C672.524 140.7 680.852 121.5 685.828 109.8C701.976 72.2 690.601 35.6 686.844 24.8M695.984 24.8C700.757 45.1 702.484 66 701.062 86.8C699.031 116.5 697.609 136.6 682.781 148.8C667.954 161 652.517 154.3 641.142 169.8C636.572 176.1 639.619 176.4 630.986 196.8C623.978 213.3 620.018 217.6 620.83 225.8C621.744 235.5 628.041 237.6 632.002 245.8C643.884 270.2 608.338 291.6 609.659 333.8C610.268 353.5 618.291 357.4 614.737 374.8C611.791 389 601.94 399.6 590.362 412.8C571.879 433.9 563.043 436 563.957 443.8C565.176 454.1 581.222 453.8 605.596 476.8C613.01 483.7 613.518 485.6 618.799 488.8C633.525 497.6 649.267 494.8 660.438 493.8C682.578 491.9 685.523 497.1 723.405 501.8L723.713 501.838C744.445 504.377 806.947 512.034 879.806 498.8C880.669 498.645 883.825 498.042 887.5 497.332M594.12 598.3C602.55 585.1 630.453 559.97 644.189 556.8C725.639 538 710.202 527.3 788.403 516.8C816.512 513.006 856.098 509.212 887.5 509.265M547.098 598.3C544.661 592 549.942 573.5 571.066 561.8C592.19 550.1 600.214 555.2 618.799 554.8C652.618 554.1 661.657 542.1 705.124 527.8C745.844 514.402 777.661 511.937 829.862 507.893L831.057 507.8C845.411 506.713 869.013 504.178 887.5 503.053M67.5368 599.5C67.5368 586.5 56.2759 574.301 54.9433 564.5C53.6107 554.699 56.2566 545.196 59.7166 544.3C65.5056 542.8 76.9816 551.9 96.2778 550.3C119.535 548.4 141.167 527.1 147.057 521.3C154.166 514.3 155.284 511.4 160.26 510.3C173.869 507.3 179.759 526.2 200.884 529.3C214.797 531.3 225.156 525 230.336 531.3C233.078 534.6 232.468 539.2 232.367 540.3C230.742 553.3 212.766 555.9 186.665 574.3C186.665 574.3 192.045 569.602 186.664 574.301C181.283 579 175.697 588 177.221 599M359.316 599C361.55 597.4 364.292 595.8 368.05 594.3C386.026 586.9 407.353 588.5 421.876 598.3C422.181 598.5 422.486 598.7 422.993 599M24.6787 559.8C35.1393 563.8 45.7014 571 47.8342 576.2C50.2039 580.633 54.9433 591.5 54.9433 599.5M238.968 128.8C230.437 126.2 218.555 135.8 217.641 144.8C217.031 151.3 222.719 152.7 223.734 161.8C224.852 171.2 219.266 173.8 220.688 180.8C222.719 190.7 237.242 201.1 248.109 196.8C255.015 194.1 259.28 185.9 259.28 178.8C259.178 168.2 249.327 166.7 248.109 153.8C247.398 146.6 250.14 143 247.093 136.8C246.484 135.4 243.945 130.2 238.968 128.8Z" stroke="black" stroke-opacity="0.12" stroke-miterlimit="10"/>
<path d="M71.5 24L71.5 599.2M119.5 24L119.5 599.2M167.5 24L167.5 599.2M215.5 24L215.5 599.2M263.5 24L263.5 599.2M311.5 24L311.5 599.2M359.5 24L359.5 599.2M407.5 24L407.5 599.2M455.5 24L455.5 599.2M503.5 24L503.5 599.2M551.5 24V599.2M599.5 24V599.2M647.5 24V599.2M695.5 24V599.2M743.5 24V599.2M791.5 24V599.2M839.5 24V599.2M23.5 71.5H887.5M23.5 119.5H887.5M23.5 167.5H887.5M23.5 215.5H887.5M23.5 263.5H887.5M23.5 311.5H887.5M23.5 359.5H887.5M23.5 407.5H887.5M23.5 455.5H887.5M23.5 503.5H887.5M23.5 551.5H887.5" stroke="black" stroke-opacity="0.12"/>
<rect x="24.5" y="24.5" width="863" height="575" stroke="black" stroke-opacity="0.12"/>
</svg>
