<svg width="48" height="48" viewBox="0 0 48 48" fill="none" xmlns="http://www.w3.org/2000/svg">
<path d="M39 6C39 4.34315 40.3431 3 42 3V3C43.6569 3 45 4.34315 45 6V24H39V6Z" stroke="var(--icon-stroke)" stroke-width="var(--icon-stroke-width)" stroke-linejoin="round"/>
<path d="M42 4C42.5523 4 43 3.55228 43 3C43 2.44772 42.5523 2 42 2V4ZM40 41.5V23H38V41.5H40ZM31 38.5V41.5H33V38.5H31ZM35.5 46C37.9853 46 40 43.9853 40 41.5H38C38 42.8807 36.8807 44 35.5 44V46ZM35.5 44C34.1193 44 33 42.8807 33 41.5H31C31 43.9853 33.0147 46 35.5 46V44ZM13 4H42V2H13V4ZM10 40V7H8V40H10ZM13 2C10.2386 2 8 4.23858 8 7H10C10 5.34315 11.3431 4 13 4V2Z" fill="var(--icon-fill)"/>
<path d="M3 39V38C2.44772 38 2 38.4477 2 39H3ZM36 46C36.5523 46 37 45.5523 37 45C37 44.4477 36.5523 44 36 44V46ZM3 40H33V38H3V40ZM4 41V39H2V41H4ZM7 44C5.34315 44 4 42.6569 4 41H2C2 43.7614 4.23858 46 7 46V44ZM36 44H7V46H36V44Z" fill="var(--icon-fill)"/>
<path d="M17.5858 11.5858L19 13M19 13L20.4142 14.4142M19 13L17.5858 14.4142M19 13L20.4142 11.5858M25 13C25 16.3137 22.3137 19 19 19C15.6863 19 13 16.3137 13 13C13 9.68629 15.6863 7 19 7C22.3137 7 25 9.68629 25 13Z" stroke="var(--icon-stroke)" stroke-width="var(--icon-stroke-width)" stroke-linecap="round"/>
</svg>
